<svg width="212" height="240" viewBox="0 0 212 240" fill="none" xmlns="http://www.w3.org/2000/svg">
<g>
<path d="M5.92061 178.855L99.5032 238.25C101.311 239.396 103.362 240 105.45 240C107.537 240 109.588 239.396 111.396 238.25L209.492 176.181C210.248 175.7 210.877 175.012 211.316 174.183C211.756 173.355 211.992 172.414 212 171.455C212.008 170.495 211.789 169.55 211.363 168.713C210.938 167.875 210.321 167.173 209.574 166.678L113.069 102.841C112.292 102.331 111.403 102.062 110.498 102.062C109.593 102.062 108.704 102.331 107.927 102.841L5.89612 169.352C5.14603 169.842 4.52518 170.539 4.09478 171.374C3.66438 172.208 3.43932 173.152 3.44179 174.111C3.44426 175.07 3.67418 176.012 4.10887 176.844C4.54356 177.676 5.16801 178.369 5.92061 178.855Z" fill="url(#paint0_linear)"/>
<path d="M162.452 38.1783L102.197 0.552716C101.61 0.190334 100.948 0 100.274 0C99.6012 0 98.9393 0.190334 98.3522 0.552716L94.271 2.93067L96.3361 3.61265C96.296 3.85554 96.2741 4.10164 96.2708 4.34847L95.1117 137.317C95.0958 139.181 95.5349 141.016 96.3833 142.631C97.2318 144.245 98.4585 145.58 99.9357 146.497L160.452 184.059C160.574 184.132 160.7 184.198 160.828 184.257L160.069 186.33L163.856 184.311C164.107 184.2 164.348 184.061 164.574 183.898C165.117 183.507 165.562 182.975 165.871 182.348C166.181 181.722 166.343 181.021 166.345 180.308V45.5544C166.347 44.0565 165.987 42.5848 165.304 41.2891C164.62 39.9935 163.636 38.9201 162.452 38.1783Z" fill="url(#paint1_linear)"/>
<path style="mix-blend-mode:multiply" opacity="0.62" d="M84.8433 177.455L42.2434 201.737C42.2434 201.737 68.1592 220.258 85.129 228.953L137.524 194.63" fill="url(#paint2_linear)"/>
<path d="M96.083 148.516L156.599 186.078C157.203 186.453 157.885 186.647 158.578 186.642C159.271 186.637 159.951 186.432 160.549 186.048C161.148 185.664 161.645 185.114 161.99 184.454C162.335 183.793 162.517 183.044 162.517 182.283V47.5824C162.518 46.0835 162.157 44.6113 161.472 43.3155C160.786 42.0198 159.801 40.947 158.616 40.2063L98.3358 2.58966C97.7375 2.21599 97.0611 2.01982 96.373 2.02042C95.6849 2.02102 95.0088 2.21837 94.4111 2.59309C93.8134 2.96782 93.3146 3.50702 92.9637 4.15774C92.6128 4.80846 92.422 5.54832 92.4099 6.30466L91.2589 139.291C91.2356 141.163 91.6713 143.007 92.5201 144.631C93.3689 146.254 94.5996 147.596 96.083 148.516Z" fill="url(#paint3_linear)"/>
<path d="M95.5117 140.565L157.636 179.124V50.9834L96.6136 12.9001L95.5117 140.565Z" fill="url(#paint4_linear)"/>
<path d="M140.969 106.601V134.517L151.653 141.92V113.672L140.969 106.601Z" fill="url(#paint5_linear)"/>
<path d="M141.809 112.972V118.544L144.119 120.222V114.587L141.809 112.972Z" fill="url(#paint6_linear)"/>
<path d="M145.058 114.937V120.509L147.36 122.187V116.552L145.058 114.937Z" fill="url(#paint7_linear)"/>
<path d="M148.298 117.028V122.6L150.608 124.278V118.643L148.298 117.028Z" fill="url(#paint8_linear)"/>
<path d="M141.809 120.222V125.795L144.119 127.482V121.838L141.809 120.222Z" fill="url(#paint9_linear)"/>
<path d="M145.058 122.188V127.76L147.36 129.447V123.803L145.058 122.188Z" fill="url(#paint10_linear)"/>
<path d="M148.298 124.278V129.86L150.608 131.538V125.894L148.298 124.278Z" fill="url(#paint11_linear)"/>
<path d="M141.809 127.455V133.027L144.119 134.705V129.07L141.809 127.455Z" fill="url(#paint12_linear)"/>
<path d="M145.058 129.42V134.993L147.36 136.671V131.035L145.058 129.42Z" fill="url(#paint13_linear)"/>
<path d="M148.298 131.511V137.083L150.608 138.77V133.126L148.298 131.511Z" fill="url(#paint14_linear)"/>
<path d="M129.084 125.418C130.389 126.283 131.479 127.491 132.254 128.934C133.029 130.376 133.465 132.008 133.524 133.682C133.524 133.79 133.524 133.895 133.524 133.997C133.496 135.225 133.155 136.42 132.538 137.445C131.922 138.47 131.056 139.284 130.039 139.793C128.761 140.274 127.377 140.293 126.088 139.847C123.068 138.95 119.33 136.733 117.926 133.503C117.562 132.667 117.357 131.759 117.324 130.833C117.29 129.907 117.428 128.984 117.73 128.119C118.668 125.427 121.215 123.973 123.729 123.776C125.628 123.681 127.504 124.256 129.084 125.418Z" fill="url(#paint15_linear)"/>
<path d="M132.169 128.774L130.814 129.402C130.301 129.269 129.824 129.004 129.421 128.63C129.018 128.256 128.701 127.783 128.496 127.249C128.366 126.899 127.835 127.051 127.974 127.41C128.36 128.451 129.101 129.286 130.039 129.734L129.59 129.914C128.121 130.488 126.325 131.179 124.758 130.811C124.47 130.774 124.195 130.663 123.953 130.489C123.711 130.314 123.51 130.08 123.365 129.804C123.22 129.529 123.135 129.22 123.118 128.903C123.1 128.585 123.15 128.268 123.264 127.975C123.86 126.602 125.501 125.965 126.709 125.508C127.264 125.301 127.819 125.113 128.39 124.96C126.96 124.101 125.34 123.7 123.713 123.803C121.199 124 118.652 125.472 117.714 128.146C117.412 129.011 117.274 129.934 117.307 130.86C117.341 131.786 117.546 132.694 117.909 133.53C119.33 136.76 123.068 138.914 126.072 139.874C127.36 140.32 128.745 140.301 130.023 139.82C131.04 139.311 131.906 138.497 132.522 137.472C133.138 136.447 133.48 135.252 133.508 134.023C133.508 133.916 133.508 133.811 133.508 133.709C133.506 131.956 133.041 130.242 132.169 128.774Z" fill="#393B5B"/>
<path d="M120.652 135.459C120.391 135.244 103.609 135.737 100.989 175.526L91.1938 169.334C89.381 170.256 87.8721 171.772 86.874 173.674C85.8759 175.577 85.4375 177.772 85.6188 179.958C86.1167 187.855 108.213 201.001 117.689 197.466C127.166 193.93 122.978 169.011 122.978 169.011L128.496 154.752" fill="#393B5B"/>
<path d="M119.82 187.729C119.82 187.729 129.965 191.48 131.524 189.246C133.083 187.012 140.446 169.316 136.136 163.564C131.826 157.812 122.546 163.564 119.534 166.256" fill="#393B5B"/>
<path d="M130.276 189.775C131.524 189.255 136.961 191.57 137.842 191.014C138.724 190.457 138.944 197.744 132.365 196.003C128.288 194.899 124.353 193.238 120.652 191.059C120.652 191.059 122.35 185.674 124.978 185.333" fill="#373558"/>
<path d="M147.76 128.774L147.4 129.214V128.882C147.634 128.423 147.908 127.991 148.217 127.59C148.322 127.453 148.397 127.292 148.435 127.118C148.474 126.944 148.475 126.763 148.439 126.589C148.402 126.414 148.329 126.252 148.225 126.114C148.122 125.976 147.99 125.867 147.841 125.795L147.915 125.723C148.853 124.763 147.441 123.219 146.511 124.18L145.76 124.924C145.573 124.72 145.325 124.598 145.062 124.58C144.8 124.561 144.54 124.649 144.331 124.826C143.817 125.265 143.18 125.669 142.944 126.369C142.787 127.199 142.76 128.051 142.862 128.891V130.802C142.691 130.461 142.511 130.12 142.323 129.797C141.638 128.621 139.932 129.689 140.601 130.901C141.121 131.825 141.566 132.798 141.932 133.808L142.013 134.05C141.899 134.723 141.777 135.387 141.638 136.06C141.548 136.748 141.417 137.429 141.246 138.097C141.062 138.246 140.938 138.469 140.901 138.717C140.864 138.966 140.918 139.22 141.05 139.425C141.112 139.565 141.202 139.687 141.313 139.784C141.424 139.88 141.553 139.948 141.69 139.982C141.828 140.017 141.971 140.017 142.109 139.982C142.247 139.948 142.376 139.881 142.487 139.784C142.685 139.939 142.926 140.015 143.169 140.001C143.412 139.986 143.643 139.881 143.825 139.704C144.034 139.783 144.261 139.783 144.47 139.704C144.606 139.927 144.813 140.086 145.051 140.148C145.289 140.21 145.54 140.169 145.752 140.036C146.658 139.497 146.862 137.954 147.09 136.958C147.424 135.62 147.556 134.232 147.482 132.848C147.482 132.848 147.482 132.785 147.482 132.749C147.944 131.895 148.492 131.101 149.115 130.38C150.053 129.294 148.649 127.742 147.76 128.774Z" fill="url(#paint16_linear)"/>
<path d="M143.793 129.034L144.086 129.124C144.075 128.67 144.102 128.217 144.168 127.769C144.34 126.701 145.254 125.759 145.931 125.014C145.96 124.976 145.975 124.928 145.973 124.879C145.971 124.829 145.953 124.782 145.921 124.747C145.889 124.712 145.846 124.692 145.802 124.69C145.757 124.688 145.713 124.704 145.678 124.736C144.926 125.445 144.317 126.319 143.891 127.302C143.738 127.854 143.675 128.431 143.703 129.007L143.793 129.034Z" fill="#393B5B"/>
<path d="M147.686 125.472C147.155 126.369 146.413 127.024 145.89 127.877C145.587 128.455 145.408 129.103 145.368 129.77C145.488 129.854 145.602 129.944 145.711 130.039C145.766 129.181 146.05 128.36 146.527 127.679C147.057 127.044 147.551 126.372 148.004 125.669C148.127 125.454 147.817 125.256 147.686 125.472Z" fill="#393B5B"/>
<path d="M147.147 129.241C146.913 129.797 146.701 130.362 146.511 130.937L146.641 131.143C146.693 131.228 146.724 131.327 146.731 131.43C146.943 130.757 147.188 130.093 147.458 129.438C147.556 129.241 147.245 129.043 147.147 129.241Z" fill="#393B5B"/>
<path d="M130.039 139.802C129.95 140.58 130.055 141.37 130.343 142.087C130.63 142.805 131.089 143.423 131.671 143.876C133.655 145.222 142.054 134.526 142.054 134.526C142.054 134.526 145.915 134.185 146.69 139.372C147.466 144.558 135.01 157.229 128.496 158.117C121.982 159.005 117.297 151.315 117.297 151.315C117.297 151.315 118.171 136.446 122.146 135.45" fill="#393B5B"/>
<path d="M5.7981 123.399L9.51201 125.418L11.6832 123.139L14.785 119.235L8.74474 117.979L5.7981 123.399Z" fill="#CC0000"/>
<path d="M54.9279 33.5031L34.432 44.1636L31.5017 53.9356L1.34142 71.9812C0.889743 72.2443 0.521429 72.652 0.285287 73.1504C0.0491442 73.6487 -0.0436829 74.2142 0.0191002 74.7719L5.73282 123.408L61.6538 87.5142L58.3072 46.0211C58.2256 44.2982 57.491 38.1693 57.0175 34.8132C56.9856 34.5602 56.9012 34.3186 56.7708 34.107C56.6405 33.8955 56.4678 33.7197 56.2659 33.5931C56.064 33.4665 55.8384 33.3926 55.6064 33.377C55.3745 33.3614 55.1424 33.4045 54.9279 33.5031Z" fill="url(#paint17_linear)"/>
<path d="M63.4251 37.5681L41.1906 50.2027L38.2276 58.2788L10.8752 75.5257C10.4636 75.7849 10.121 76.1583 9.88178 76.6087C9.64257 77.0591 9.51508 77.5706 9.51208 78.0921V125.409L65.4331 89.5153V40.4037L65.3188 38.7885C65.3055 38.5505 65.2391 38.3198 65.1256 38.1167C65.012 37.9135 64.8548 37.7442 64.6677 37.6237C64.4806 37.5031 64.2694 37.435 64.0527 37.4253C63.836 37.4156 63.6205 37.4646 63.4251 37.5681Z" fill="url(#paint18_linear)"/>
<path d="M79.8561 184.257C80.9595 184.75 82.1346 185.02 83.3252 185.055C83.6251 185.054 83.9192 184.965 84.178 184.798C84.4368 184.632 84.6511 184.393 84.7992 184.106C84.9474 183.82 85.0242 183.495 85.0219 183.166C85.0196 182.836 84.9384 182.513 84.7863 182.229C84.6481 181.658 84.6582 181.056 84.8155 180.492C84.9728 179.927 85.2709 179.422 85.676 179.034C86.2229 178.594 87.635 179.25 88.5818 179.77C88.8633 179.923 89.1778 179.987 89.4905 179.956C89.8032 179.924 90.1018 179.798 90.3531 179.591L92.9324 177.482C93.1589 177.296 93.3395 177.052 93.4579 176.77C93.5762 176.488 93.6284 176.178 93.6097 175.869C93.591 175.559 93.5021 175.259 93.351 174.997C93.1999 174.735 92.9914 174.519 92.7447 174.368C89.6103 172.448 84.2149 169.307 83.2762 169.881C81.9376 170.779 77.8808 178.666 77.8645 180.694C77.9162 181.882 78.3947 182.999 79.195 183.799C79.3808 184.005 79.6069 184.162 79.8561 184.257Z" fill="#373558"/>
<path d="M130.455 127.204C130.282 127.04 130.069 126.934 129.843 126.899C129.753 126.899 129.639 126.899 129.623 127.033C129.611 127.107 129.611 127.183 129.623 127.257C129.61 127.284 129.604 127.313 129.604 127.343C129.604 127.372 129.61 127.402 129.623 127.428C129.729 127.65 129.894 127.832 130.096 127.948C130.183 128.015 130.29 128.04 130.394 128.02C130.498 128 130.59 127.936 130.651 127.841C130.782 127.598 130.618 127.347 130.455 127.204Z" fill="#393B5B"/>
<path d="M127.353 128.675C127.204 128.453 126.991 128.292 126.749 128.218C126.696 128.205 126.641 128.21 126.591 128.232C126.54 128.254 126.497 128.292 126.466 128.34C126.434 128.389 126.417 128.447 126.415 128.506C126.413 128.566 126.427 128.624 126.456 128.675C126.443 128.81 126.459 128.947 126.501 129.074C126.544 129.202 126.612 129.317 126.7 129.411C126.79 129.482 126.897 129.52 127.007 129.52C127.116 129.52 127.224 129.482 127.313 129.411C127.405 129.318 127.461 129.19 127.469 129.052C127.476 128.915 127.435 128.78 127.353 128.675Z" fill="#393B5B"/>
<path d="M130.871 105.129C130.871 105.129 136.324 101.235 136.373 101.19C136.422 101.145 132.741 98.058 132.741 98.058L130.618 102.5" fill="#CC0000"/>
<path d="M109.706 58.1711L114.571 54.6804L115.779 61.7425L110.849 60.6477" fill="#CC0000"/>
<path d="M116.457 54.5099C116.196 54.3446 115.901 54.2567 115.601 54.2549C115.3 54.253 115.004 54.3373 114.742 54.4994C114.48 54.6615 114.261 54.8959 114.107 55.1794C113.952 55.4629 113.867 55.7858 113.861 56.1162L113.322 86.2579C113.322 86.7251 113.433 87.1842 113.643 87.5901C113.854 87.9961 114.156 88.3348 114.522 88.5731L133.81 101.217C134.182 101.464 134.607 101.597 135.042 101.604C135.477 101.61 135.905 101.489 136.283 101.254C136.661 101.018 136.975 100.676 137.193 100.262C137.411 99.849 137.525 99.3793 137.524 98.9015V69.4328C137.525 68.9485 137.407 68.4728 137.183 68.0559C136.959 67.639 136.637 67.2962 136.25 67.0638L116.457 54.5099Z" fill="url(#paint19_linear)"/>
<path d="M111.273 58.2608C111.013 58.0955 110.718 58.0076 110.417 58.0057C110.117 58.0039 109.821 58.0882 109.559 58.2503C109.297 58.4124 109.078 58.6468 108.923 58.9303C108.769 59.2138 108.684 59.5367 108.678 59.8671L108.139 90.0088C108.139 90.476 108.25 90.9351 108.46 91.341C108.671 91.7469 108.973 92.0857 109.339 92.324L128.627 105.012C128.999 105.259 129.424 105.393 129.859 105.399C130.293 105.406 130.722 105.285 131.1 105.049C131.478 104.814 131.792 104.471 132.01 104.058C132.228 103.645 132.342 103.175 132.341 102.697V73.1836C132.342 72.6994 132.224 72.2237 132 71.8068C131.776 71.3898 131.454 71.0471 131.067 70.8147L111.273 58.2608Z" fill="url(#paint20_linear)"/>
<path d="M119.903 83.638C122.191 83.4374 123.81 80.039 123.521 76.0473C123.231 72.0556 121.142 68.9823 118.855 69.1828C116.567 69.3834 114.948 72.7819 115.237 76.7735C115.527 80.7652 117.616 83.8385 119.903 83.638Z" fill="url(#paint21_linear)"/>
<path d="M119.207 77.437H118.391C117.751 77.437 117.232 78.0075 117.232 78.7113V90.4754C117.232 91.1792 117.751 91.7497 118.391 91.7497H119.207C119.847 91.7497 120.366 91.1792 120.366 90.4754V78.7113C120.366 78.0075 119.847 77.437 119.207 77.437Z" fill="url(#paint22_linear)"/>
<path d="M130.006 67.997C131.106 67.997 131.998 67.4064 131.998 66.6779C131.998 65.9494 131.106 65.3588 130.006 65.3588C128.906 65.3588 128.015 65.9494 128.015 66.6779C128.015 67.4064 128.906 67.997 130.006 67.997Z" fill="url(#paint23_linear)"/>
<path d="M123.974 43.356C114.645 40.8883 114.718 52.7601 114.718 52.7601V57.0045C114.649 57.6258 114.702 58.2561 114.873 58.8531C115.101 59.1057 115.376 59.3013 115.678 59.4268C115.981 59.5522 116.305 59.6044 116.628 59.5799C117.183 59.5799 117.983 59.4812 118.26 58.9248C118.413 58.407 118.46 57.8587 118.399 57.3186C118.342 56.3315 118.326 55.3355 118.358 54.3484C118.416 52.2127 118.587 49.6104 119.836 47.8606C120.245 47.3093 120.806 46.9187 121.434 46.7472C122.063 46.5757 122.725 46.6326 123.321 46.9094C128.113 48.6592 127.982 54.9855 127.982 54.9855V66.651H131.965V54.6804C131.965 54.6804 131.255 45.2852 123.974 43.356Z" fill="url(#paint24_linear)"/>
<path style="mix-blend-mode:multiply" opacity="0.62" d="M51.9976 151.674L21.2415 173.668C21.2415 173.668 14.7115 172.582 31.6568 181.286L65.2371 157.283" fill="url(#paint25_linear)"/>
<path d="M47.3613 147.914C47.3613 147.914 48.8387 157.713 57.8909 158.602C69.9387 159.786 70.559 147.914 70.559 147.914" fill="url(#paint26_linear)"/>
<path opacity="0.37" d="M54.7075 148.085H47.3613C47.3613 148.085 48.7 156.942 56.6257 158.575C55.5022 157.162 54.7341 155.45 54.3976 153.61C54.0611 151.77 54.168 149.865 54.7075 148.085Z" fill="#393B5B"/>
<path d="M58.9602 151.701C65.3661 151.701 70.559 150.006 70.559 147.914C70.559 145.823 65.3661 144.128 58.9602 144.128C52.5543 144.128 47.3613 145.823 47.3613 147.914C47.3613 150.006 52.5543 151.701 58.9602 151.701Z" fill="#393B5B"/>
<path d="M70.0285 139.605C67.8736 138.905 65.4085 139.838 63.621 141.157C63.0397 141.599 62.4936 142.095 61.9885 142.638C61.7577 142.75 61.5341 142.879 61.3192 143.024C62.266 139.955 62.8455 136.805 61.4661 133.709C60.7478 132.094 58.5847 129.6 56.8869 131.287C56.5731 131.668 56.3343 132.117 56.1854 132.605C56.0365 133.093 55.9808 133.609 56.0217 134.122C56.0369 135.435 56.2014 136.74 56.5115 138.008C56.838 139.443 57.2624 140.852 57.5808 142.288C57.6406 142.551 57.695 142.814 57.744 143.078C56.6995 141.902 55.5871 140.802 54.4137 139.784C54.1688 139.578 53.9158 139.39 53.6464 139.21C52.4812 137.921 50.9595 137.094 49.3203 136.859C48.2949 136.647 47.2346 136.875 46.3574 137.496C45.966 137.856 45.6798 138.335 45.5346 138.873C45.3894 139.411 45.3917 139.984 45.5411 140.52C46.0554 143.069 48.1368 145.007 50.0795 146.272C52.2331 147.687 54.674 148.489 57.1808 148.605C57.3002 148.736 57.4613 148.81 57.6297 148.812C60.2502 148.898 62.8699 148.614 65.4249 147.968C67.5716 147.421 70.2081 146.694 71.6855 144.738C73.1629 142.781 72.1426 140.296 70.0285 139.605Z" fill="url(#paint27_linear)"/>
<path d="M68.2818 142.18C66.0289 144.702 62.9762 145.895 60.1764 147.51C60.2649 142.566 59.9067 137.625 59.1072 132.758C59.0174 132.193 58.2338 132.435 58.2909 132.991C59.0765 137.799 59.4238 142.681 59.3275 147.564C55.6109 144.771 51.9405 141.905 48.3164 138.968C47.8919 138.627 47.5001 139.399 47.9083 139.74C51.5161 142.665 55.1701 145.518 58.8705 148.3L58.3644 148.65C57.9236 148.964 58.3644 149.736 58.7725 149.422L59.2949 149.063C59.2949 149.153 59.2949 149.251 59.2949 149.341C59.2949 149.915 60.1111 149.915 60.1111 149.341V149.224L60.3968 149.44C60.8294 149.763 61.2131 148.991 60.8049 148.668L60.4132 148.372C63.3108 146.658 66.4942 145.438 68.8368 142.808C69.2286 142.405 68.6491 141.803 68.2818 142.18Z" fill="#393B5B"/>
</g>
<defs>
<linearGradient id="paint0_linear" x1="107.721" y1="102.062" x2="107.721" y2="240" gradientUnits="userSpaceOnUse">
<stop offset="0.015625"/>
<stop offset="1" stop-color="#FF0000" stop-opacity="0.7"/>
</linearGradient>
<linearGradient id="paint1_linear" x1="130.308" y1="0" x2="130.308" y2="186.33" gradientUnits="userSpaceOnUse">
<stop offset="0.015625"/>
<stop offset="1" stop-color="#FF0000" stop-opacity="0.7"/>
</linearGradient>
<linearGradient id="paint2_linear" x1="70.6732" y1="213.375" x2="233.819" y2="106.62" gradientUnits="userSpaceOnUse">
<stop stop-opacity="0"/>
<stop offset="1"/>
</linearGradient>
<linearGradient id="paint3_linear" x1="126.888" y1="2.02042" x2="126.888" y2="186.642" gradientUnits="userSpaceOnUse">
<stop offset="0.015625"/>
<stop offset="1" stop-color="#FF0000" stop-opacity="0.7"/>
</linearGradient>
<linearGradient id="paint4_linear" x1="126.574" y1="12.9001" x2="126.574" y2="179.124" gradientUnits="userSpaceOnUse">
<stop offset="0.015625"/>
<stop offset="1" stop-color="#FF0000" stop-opacity="0.7"/>
</linearGradient>
<linearGradient id="paint5_linear" x1="146.311" y1="106.601" x2="146.311" y2="141.92" gradientUnits="userSpaceOnUse">
<stop offset="0.015625"/>
<stop offset="1" stop-color="#FF0000" stop-opacity="0.7"/>
</linearGradient>
<linearGradient id="paint6_linear" x1="142.964" y1="112.972" x2="142.964" y2="120.222" gradientUnits="userSpaceOnUse">
<stop offset="0.015625"/>
<stop offset="1" stop-color="#FF0000" stop-opacity="0.7"/>
</linearGradient>
<linearGradient id="paint7_linear" x1="146.209" y1="114.937" x2="146.209" y2="122.187" gradientUnits="userSpaceOnUse">
<stop offset="0.015625"/>
<stop offset="1" stop-color="#FF0000" stop-opacity="0.7"/>
</linearGradient>
<linearGradient id="paint8_linear" x1="149.453" y1="117.028" x2="149.453" y2="124.278" gradientUnits="userSpaceOnUse">
<stop offset="0.015625"/>
<stop offset="1" stop-color="#FF0000" stop-opacity="0.7"/>
</linearGradient>
<linearGradient id="paint9_linear" x1="142.964" y1="120.222" x2="142.964" y2="127.482" gradientUnits="userSpaceOnUse">
<stop offset="0.015625"/>
<stop offset="1" stop-color="#FF0000" stop-opacity="0.7"/>
</linearGradient>
<linearGradient id="paint10_linear" x1="146.209" y1="122.188" x2="146.209" y2="129.447" gradientUnits="userSpaceOnUse">
<stop offset="0.015625"/>
<stop offset="1" stop-color="#FF0000" stop-opacity="0.7"/>
</linearGradient>
<linearGradient id="paint11_linear" x1="149.453" y1="124.278" x2="149.453" y2="131.538" gradientUnits="userSpaceOnUse">
<stop offset="0.015625"/>
<stop offset="1" stop-color="#FF0000" stop-opacity="0.7"/>
</linearGradient>
<linearGradient id="paint12_linear" x1="142.964" y1="127.455" x2="142.964" y2="134.705" gradientUnits="userSpaceOnUse">
<stop offset="0.015625"/>
<stop offset="1" stop-color="#FF0000" stop-opacity="0.7"/>
</linearGradient>
<linearGradient id="paint13_linear" x1="146.209" y1="129.42" x2="146.209" y2="136.671" gradientUnits="userSpaceOnUse">
<stop offset="0.015625"/>
<stop offset="1" stop-color="#FF0000" stop-opacity="0.7"/>
</linearGradient>
<linearGradient id="paint14_linear" x1="149.453" y1="131.511" x2="149.453" y2="138.77" gradientUnits="userSpaceOnUse">
<stop offset="0.015625"/>
<stop offset="1" stop-color="#FF0000" stop-opacity="0.7"/>
</linearGradient>
<linearGradient id="paint15_linear" x1="117.491" y1="130.972" x2="131.413" y2="136.721" gradientUnits="userSpaceOnUse">
<stop stop-color="#ECC4D7"/>
<stop offset="0.42" stop-color="#EFD4D1"/>
<stop offset="1" stop-color="#F2EAC9"/>
</linearGradient>
<linearGradient id="paint16_linear" x1="140.544" y1="131.038" x2="149.117" y2="133.011" gradientUnits="userSpaceOnUse">
<stop stop-color="#ECC4D7"/>
<stop offset="0.42" stop-color="#EFD4D1"/>
<stop offset="1" stop-color="#F2EAC9"/>
</linearGradient>
<linearGradient id="paint17_linear" x1="30.8269" y1="33.3739" x2="30.8269" y2="123.408" gradientUnits="userSpaceOnUse">
<stop offset="0.015625"/>
<stop offset="1" stop-color="#FF0000" stop-opacity="0.7"/>
</linearGradient>
<linearGradient id="paint18_linear" x1="37.4726" y1="37.4241" x2="37.4726" y2="125.409" gradientUnits="userSpaceOnUse">
<stop offset="0.015625"/>
<stop offset="1" stop-color="#FF0000" stop-opacity="0.7"/>
</linearGradient>
<linearGradient id="paint19_linear" x1="125.423" y1="54.2548" x2="125.423" y2="101.604" gradientUnits="userSpaceOnUse">
<stop offset="0.015625"/>
<stop offset="1" stop-color="#FF0000" stop-opacity="0.7"/>
</linearGradient>
<linearGradient id="paint20_linear" x1="120.24" y1="58.0057" x2="120.24" y2="105.4" gradientUnits="userSpaceOnUse">
<stop offset="0.015625"/>
<stop offset="1" stop-color="#FF0000" stop-opacity="0.7"/>
</linearGradient>
<linearGradient id="paint21_linear" x1="118.855" y1="69.1828" x2="120.12" y2="83.619" gradientUnits="userSpaceOnUse">
<stop offset="0.015625"/>
<stop offset="1" stop-color="#FF0000" stop-opacity="0.7"/>
</linearGradient>
<linearGradient id="paint22_linear" x1="118.799" y1="77.437" x2="118.799" y2="91.7497" gradientUnits="userSpaceOnUse">
<stop offset="0.015625"/>
<stop offset="1" stop-color="#FF0000" stop-opacity="0.7"/>
</linearGradient>
<linearGradient id="paint23_linear" x1="130.006" y1="65.3588" x2="130.006" y2="67.997" gradientUnits="userSpaceOnUse">
<stop offset="0.015625"/>
<stop offset="1" stop-color="#FF0000" stop-opacity="0.7"/>
</linearGradient>
<linearGradient id="paint24_linear" x1="123.327" y1="43.0184" x2="123.327" y2="66.651" gradientUnits="userSpaceOnUse">
<stop offset="0.015625"/>
<stop offset="1" stop-color="#FF0000" stop-opacity="0.7"/>
</linearGradient>
<linearGradient id="paint25_linear" x1="4571.32" y1="6220.12" x2="8800.82" y2="1537.6" gradientUnits="userSpaceOnUse">
<stop stop-opacity="0"/>
<stop offset="1"/>
</linearGradient>
<linearGradient id="paint26_linear" x1="58.9602" y1="147.914" x2="58.9602" y2="158.685" gradientUnits="userSpaceOnUse">
<stop offset="0.015625"/>
<stop offset="1" stop-color="#FF0000" stop-opacity="0.7"/>
</linearGradient>
<linearGradient id="paint27_linear" x1="58.905" y1="130.724" x2="58.905" y2="148.827" gradientUnits="userSpaceOnUse">
<stop offset="0.015625"/>
<stop offset="1" stop-color="#FF0000" stop-opacity="0.7"/>
</linearGradient>
</defs>
</svg>
