<svg width="566" height="537" viewBox="0 0 566 537" fill="none" xmlns="http://www.w3.org/2000/svg">
<g>
<path opacity="0.19" d="M119.809 496.494C120.818 499.48 118.736 502.79 116.19 504.211C113.644 505.632 110.698 505.758 107.944 506.559C103.66 507.8 99.8894 510.624 95.7421 512.36C90.0496 514.744 83.8527 515.005 77.7759 515.239C59.4414 515.949 39.8738 516.3 24.2935 505.416C23.7072 505.093 23.2318 504.562 22.9404 503.905C22.7766 503.254 22.8366 502.558 23.1086 501.954C24.3976 498.617 28.0965 497.6 31.2991 497.034C46.383 494.389 61.8273 491.997 77.1034 491.394C85.0457 491.097 116.799 487.499 119.809 496.494Z" fill="url(#paint0_linear)"/>
<path opacity="0.18" d="M434.587 497.825C427.645 499.408 421.104 502.655 414.627 505.92L388.646 518.845C403.138 527.606 420.728 523.99 437.189 523.738C438.63 523.738 440.183 523.738 441.328 524.746C442.929 526.158 443.073 528.829 444.074 530.844C445.956 534.658 450.479 535.422 454.346 535.71C489.365 538.273 524.523 537.014 559.326 531.95C560.991 531.708 562.736 531.42 564.081 530.295C568.085 526.94 565.266 519.196 560.735 516.804C556.203 514.411 550.879 515.005 546.067 513.458C541.255 511.911 536.612 506.19 538.861 501.144C519.022 501.588 499.182 501.348 479.342 500.425C464.37 499.705 449.535 494.407 434.587 497.825Z" fill="url(#paint1_linear)"/>
<path opacity="0.18" d="M530.247 303.409C533.497 265.317 549.998 225.021 533.129 190.581C528.701 181.587 522.352 173.878 515.251 166.71C505.867 157.257 495.179 148.721 485.835 139.195C469.302 122.322 459.847 102.147 447.109 83.6453C441.831 75.8351 435.827 68.6799 429.198 62.3013C426.562 59.8008 423.893 57.3393 421.192 54.9168C399.047 35.2098 374.123 18.2911 345.78 8.46907C305.589 -5.40049 257.807 -3.17884 223.868 22.1857C211.65 31.3152 201.754 42.8731 192.211 54.9258C184.509 64.6129 177.071 74.5608 168.84 83.6453C161.482 91.8123 153.508 99.2958 144.197 105.295C130.938 113.849 115.678 118.877 101.611 126.063C92.5866 130.672 84.0024 136.298 75.9905 142.856C65.2368 151.628 55.62 162.035 47.4159 173.779C29.6258 199.252 19.5618 229.968 20.2423 260.891C20.3464 265.73 20.6987 270.597 20.8348 275.454C21.1012 280.793 20.8272 286.149 20.0182 291.419C18.529 300.054 14.8701 308.167 11.0911 316.208C5.94302 327.154 0.554745 337.984 0.0423394 349.883C-0.854371 370.337 12.6283 387.858 27.5842 402.834C30.0821 405.335 32.6282 407.772 35.1422 410.138C39.1453 413.915 43.2686 417.693 47.4239 421.426L48.2245 422.145C50.4503 424.133 52.6841 426.112 54.9499 428.073C60.6344 432.993 66.455 437.787 72.4197 442.356C75.0885 444.389 77.7573 446.365 80.426 448.283C86.6413 452.765 93.0546 456.889 99.6413 460.642C115.902 469.924 133.268 476.706 151.955 479.404C203.139 486.6 254.052 461.029 305.677 464.411C339.551 466.623 371.144 481.14 403.97 489.595C436.796 498.05 474.915 499.399 501.384 478.505C525.779 459.284 533.777 426.076 533.841 395.369C533.905 364.661 527.62 334.017 530.247 303.409Z" fill="url(#paint2_linear)"/>
<path d="M493.097 54.9258H69.5614C66.6585 54.9211 63.7831 55.5587 61.0996 56.8024C58.416 58.0461 55.9767 59.8713 53.9211 62.174C51.8654 64.4767 50.2336 67.2118 49.1188 70.2229C48.004 73.2341 47.4281 76.4625 47.4239 79.7237V422.136H515.211V79.7597C515.211 73.1733 512.882 66.8567 508.736 62.1995C504.59 57.5422 498.968 54.9258 493.105 54.9258H493.097Z" fill="url(#paint3_linear)"/>
<path opacity="0.47" d="M132.187 366.82C131.386 376.201 123.893 383.091 116.174 386.041C112.171 387.57 107.92 388.425 104.485 391.213C101.05 394.001 98.8006 399.641 100.962 403.805C103.59 403.792 106.161 404.668 108.34 406.318C110.52 407.969 112.206 410.318 113.18 413.061C108.24 421.507 99.4892 426.121 90.7622 427.452C82.0353 428.783 73.1483 427.218 64.5014 425.599C61.467 425.041 58.2325 424.358 56.0467 421.857C53.861 419.357 53.2605 415.723 52.7161 412.278C52.644 411.793 52.564 411.307 52.4839 410.812H47.2397V83.6453H75.9025V239.251C75.9025 251.942 75.3901 264.741 75.5662 277.387C75.7423 289.422 82.868 295.52 89.6574 304.272C91.747 306.97 93.9167 309.831 94.5332 313.383C95.1978 317.152 93.9968 321.146 94.8855 324.842C96.4227 331.265 103.62 333.693 109.145 331.876C114.669 330.059 119.097 325.382 123.86 321.658C132.093 315.244 141.757 311.54 151.763 310.964C148.408 326.947 131.907 337.048 131.523 353.517C131.402 357.978 132.571 362.368 132.187 366.82Z" fill="url(#paint4_linear)"/>
<path d="M27.0477 380.923C19.842 367.836 14.798 353.13 13.3648 337.831C12.4841 328.503 12.8604 318.663 9.11346 310.28C6.8877 305.297 3.26082 301.016 2.13993 295.574C0.0582845 285.41 7.32004 276.119 13.9893 268.861C14.3894 268.323 14.9255 267.934 15.5265 267.745C16.5674 267.529 17.5041 268.501 18.1366 269.463C21.9556 275.247 22.2599 282.955 23.2367 290.034C24.2855 297.724 26.5273 305.675 31.7394 310.811C36.9515 315.947 44.9819 318.205 47.5519 325.454C49.8337 331.912 46.5591 339.531 48.6168 346.088C50.6744 352.645 57.712 356.575 58.7688 363.483C59.4734 368.07 57.2796 372.621 57.3437 377.272C57.3917 380.815 58.7448 384.152 59.5134 387.597C61.1627 394.991 59.5134 416.641 49.5135 410.308C40.4583 404.597 32.3639 390.574 27.0477 380.923Z" fill="url(#paint5_linear)"/>
<path d="M27.0477 380.923C19.842 367.836 14.798 353.13 13.3648 337.831C12.4841 328.503 12.8604 318.663 9.11346 310.28C6.8877 305.297 3.26082 301.016 2.13993 295.574C0.0582845 285.41 7.32004 276.119 13.9893 268.861C14.3894 268.323 14.9255 267.934 15.5265 267.745C16.5674 267.529 17.5041 268.501 18.1366 269.463C21.9556 275.247 22.2599 282.955 23.2367 290.034C24.2855 297.724 26.5273 305.675 31.7394 310.811C36.9515 315.947 44.9819 318.205 47.5519 325.454C49.8337 331.912 46.5591 339.531 48.6168 346.088C50.6744 352.645 57.712 356.575 58.7688 363.483C59.4734 368.07 57.2796 372.621 57.3437 377.272C57.3917 380.815 58.7448 384.152 59.5134 387.597C61.1627 394.991 59.5134 416.641 49.5135 410.308C40.4583 404.597 32.3639 390.574 27.0477 380.923Z" fill="url(#paint6_linear)"/>
<path d="M45.2222 366.073C42.6041 350.981 42.516 335.204 46.0228 320.327C48.1445 311.252 51.6272 302.203 50.7225 292.876C50.2101 287.326 48.1605 281.876 48.833 276.353C50.09 266.018 59.8017 260.163 68.3205 256.061C68.868 255.724 69.4914 255.574 70.1139 255.63C71.1627 255.845 71.7152 257.123 72.0114 258.274C73.7648 265.2 71.6351 272.503 70.3061 279.546C68.8729 287.155 68.4646 295.484 71.7152 302.356C74.9657 309.228 81.7791 314.535 81.8992 322.333C82.0033 329.286 76.543 335.114 76.4069 342.058C76.2708 349.002 81.611 355.478 80.4101 362.368C79.6094 366.937 76.1347 370.319 74.7336 374.69C73.6607 378.027 73.8769 381.688 73.5166 385.214C72.716 392.787 64.4054 412.404 57.0075 402.483C50.3462 393.507 47.1437 377.182 45.2222 366.073Z" fill="url(#paint7_linear)"/>
<path d="M45.2222 366.073C42.6041 350.981 42.516 335.204 46.0228 320.327C48.1445 311.252 51.6272 302.203 50.7225 292.876C50.2101 287.326 48.1605 281.876 48.833 276.353C50.09 266.018 59.8017 260.163 68.3205 256.061C68.868 255.724 69.4914 255.574 70.1139 255.63C71.1627 255.845 71.7152 257.123 72.0114 258.274C73.7648 265.2 71.6351 272.503 70.3061 279.546C68.8729 287.155 68.4646 295.484 71.7152 302.356C74.9657 309.228 81.7791 314.535 81.8992 322.333C82.0033 329.286 76.543 335.114 76.4069 342.058C76.2708 349.002 81.611 355.478 80.4101 362.368C79.6094 366.937 76.1347 370.319 74.7336 374.69C73.6607 378.027 73.8769 381.688 73.5166 385.214C72.716 392.787 64.4054 412.404 57.0075 402.483C50.3462 393.507 47.1437 377.182 45.2222 366.073Z" fill="url(#paint8_linear)"/>
<path d="M63.6848 368.565C70.5702 355.271 79.7535 343.38 91.0905 334.728C98.008 329.466 105.91 325.211 110.73 317.548C113.596 312.997 115.262 307.384 119.001 303.723C126.006 296.879 136.727 299.694 145.566 302.896C146.176 303.042 146.734 303.39 147.167 303.894C147.831 304.794 147.503 306.206 147.047 307.294C144.309 313.797 138.416 317.71 133.292 322.027C127.744 326.686 122.555 332.65 120.97 340.223C119.385 347.797 121.395 356.836 116.903 362.79C112.9 368.097 105.382 368.43 101.203 373.584C97.0232 378.738 97.2474 387.534 92.3155 391.834C89.0409 394.685 84.4372 394.658 80.8184 396.907C78.0562 398.625 76.0706 401.53 73.7247 403.913C68.6968 409.031 50.9307 417.621 51.1869 404.687C51.4031 393.057 58.6008 378.369 63.6848 368.565Z" fill="url(#paint9_linear)"/>
<path d="M63.6848 368.565C70.5702 355.271 79.7535 343.38 91.0905 334.728C98.008 329.466 105.91 325.211 110.73 317.548C113.596 312.997 115.262 307.384 119.001 303.723C126.006 296.879 136.727 299.694 145.566 302.896C146.176 303.042 146.734 303.39 147.167 303.894C147.831 304.794 147.503 306.206 147.047 307.294C144.309 313.797 138.416 317.71 133.292 322.027C127.744 326.686 122.555 332.65 120.97 340.223C119.385 347.797 121.395 356.836 116.903 362.79C112.9 368.097 105.382 368.43 101.203 373.584C97.0232 378.738 97.2474 387.534 92.3155 391.834C89.0409 394.685 84.4372 394.658 80.8184 396.907C78.0562 398.625 76.0706 401.53 73.7247 403.913C68.6968 409.031 50.9307 417.621 51.1869 404.687C51.4031 393.057 58.6008 378.369 63.6848 368.565Z" fill="url(#paint10_linear)"/>
<path d="M106.663 415.327L105.59 422.136L104.669 428.064L102.483 442.347L101.611 448.274L99.401 462.567L98.4803 468.485L92.988 503.995H35.8707L30.3303 468.485L29.4096 462.567L27.2238 448.274L26.2951 442.347L24.0213 428.064L23.1166 422.136L22.0597 415.336C21.5781 412.259 22.2042 409.093 23.8002 406.534C25.3962 403.976 27.8315 402.234 30.5705 401.692C31.1706 401.573 31.7787 401.513 32.3879 401.512H96.3186C97.6938 401.509 99.056 401.811 100.327 402.4C101.599 402.99 102.754 403.854 103.728 404.945C104.702 406.036 105.475 407.331 106.004 408.758C106.532 410.184 106.805 411.714 106.807 413.259C106.806 413.952 106.752 414.644 106.647 415.327H106.663Z" fill="url(#paint11_linear)"/>
<path d="M106.663 415.327L105.59 422.136L104.669 428.064L102.483 442.347L101.611 448.274L99.401 462.567L98.4803 468.485L92.988 503.995H35.8707L30.3303 468.485L29.4096 462.567L27.2238 448.274L26.2951 442.347L24.0213 428.064L23.1166 422.136L22.0597 415.336C21.5781 412.259 22.2042 409.093 23.8002 406.534C25.3962 403.976 27.8315 402.234 30.5705 401.692C31.1706 401.573 31.7787 401.513 32.3879 401.512H96.3186C97.6938 401.509 99.056 401.811 100.327 402.4C101.599 402.99 102.754 403.854 103.728 404.945C104.702 406.036 105.475 407.331 106.004 408.758C106.532 410.184 106.805 411.714 106.807 413.259C106.806 413.952 106.752 414.644 106.647 415.327H106.663Z" fill="url(#paint12_linear)"/>
<path d="M515.211 79.7597V83.6454H47.4239V79.7777C47.4218 76.515 47.992 73.2837 49.102 70.2687C50.2119 67.2536 51.8399 64.5138 53.8928 62.2059C55.9457 59.8979 58.3833 58.0671 61.0663 56.8179C63.7493 55.5688 66.6251 54.9258 69.5294 54.9258H493.065C495.968 54.9247 498.843 55.5658 501.525 56.8128C504.207 58.0597 506.645 59.888 508.698 62.1932C510.752 64.4984 512.381 67.2354 513.493 70.2479C514.605 73.2604 515.178 76.4895 515.179 79.7507L515.211 79.7597Z" fill="url(#paint13_linear)"/>
<path d="M71.0665 73.7603C73.7947 73.7603 76.0064 71.2757 76.0064 68.2107C76.0064 65.1457 73.7947 62.6611 71.0665 62.6611C68.3383 62.6611 66.1266 65.1457 66.1266 68.2107C66.1266 71.2757 68.3383 73.7603 71.0665 73.7603Z" fill="url(#paint14_linear)"/>
<path d="M87.6478 73.7603C90.376 73.7603 92.5877 71.2757 92.5877 68.2107C92.5877 65.1457 90.376 62.6611 87.6478 62.6611C84.9196 62.6611 82.7079 65.1457 82.7079 68.2107C82.7079 71.2757 84.9196 73.7603 87.6478 73.7603Z" fill="url(#paint15_linear)"/>
<path d="M104.221 73.7603C106.949 73.7603 109.161 71.2757 109.161 68.2107C109.161 65.1457 106.949 62.6611 104.221 62.6611C101.493 62.6611 99.281 65.1457 99.281 68.2107C99.281 71.2757 101.493 73.7603 104.221 73.7603Z" fill="url(#paint16_linear)"/>
<path d="M334.019 204.172V306.934C334.013 310.417 332.778 313.754 330.585 316.215C328.393 318.677 325.421 320.062 322.322 320.066H230.881C227.782 320.062 224.81 318.677 222.618 316.215C220.425 313.754 219.19 310.417 219.184 306.934V204.172C219.184 202.447 219.486 200.74 220.074 199.147C220.661 197.553 221.522 196.106 222.608 194.886C223.693 193.667 224.982 192.699 226.4 192.04C227.818 191.38 229.338 191.04 230.873 191.04H322.322C323.857 191.039 325.378 191.378 326.798 192.037C328.217 192.696 329.506 193.663 330.592 194.883C331.679 196.103 332.541 197.551 333.128 199.144C333.716 200.738 334.019 202.447 334.019 204.172Z" fill="url(#paint17_linear)"/>
<path d="M285.949 243.316C285.999 245.216 285.59 247.096 284.765 248.755C283.94 250.415 282.731 251.793 281.265 252.742C280.894 252.983 280.587 253.331 280.376 253.75C280.164 254.169 280.057 254.644 280.064 255.126V277.612C280.064 278.023 279.992 278.43 279.852 278.81C279.712 279.19 279.507 279.535 279.248 279.826C278.989 280.116 278.682 280.347 278.344 280.504C278.006 280.661 277.644 280.742 277.278 280.742H275.917C275.551 280.742 275.189 280.661 274.851 280.504C274.513 280.347 274.206 280.116 273.947 279.826C273.688 279.535 273.483 279.19 273.343 278.81C273.203 278.43 273.131 278.023 273.131 277.612V255.126C273.135 254.644 273.026 254.169 272.815 253.749C272.604 253.329 272.299 252.979 271.93 252.733C270.517 251.818 269.342 250.504 268.522 248.922C267.701 247.339 267.262 245.543 267.25 243.711C267.238 241.88 267.652 240.076 268.452 238.48C269.252 236.884 270.409 235.55 271.809 234.611C273.209 233.673 274.803 233.161 276.433 233.129C278.064 233.096 279.673 233.542 281.102 234.424C282.531 235.305 283.731 236.592 284.581 238.155C285.431 239.718 285.903 241.503 285.949 243.334V243.316Z" fill="url(#paint18_linear)"/>
<path d="M105.614 422.136L104.693 428.064H24.0374L23.1166 422.136H105.614Z" fill="url(#paint19_linear)"/>
<path d="M102.475 442.347L101.563 448.274H27.1917L26.263 442.347H102.475Z" fill="url(#paint20_linear)"/>
<path d="M99.3531 462.567L98.4324 468.485H30.3304L29.4097 462.567H99.3531Z" fill="url(#paint21_linear)"/>
<path opacity="0.18" d="M395.684 275.13C391.929 269.22 386.252 265.11 380.208 262.537C378.831 261.953 377.277 261.449 375.932 262.106C374.987 262.691 374.195 263.544 373.634 264.579C370.72 269.076 367.686 273.933 367.405 279.492C366.989 287.947 372.954 296.95 369.127 304.245C368.062 306.278 366.365 307.789 365.124 309.696C362.786 313.294 362.249 318.007 362.562 322.45C362.938 327.784 363.546 334.916 359.063 336.733C357.717 337.177 356.288 337.198 354.932 336.796C351 335.897 347.366 333.783 343.515 332.524C339.663 331.265 335.22 330.968 331.873 333.423C331.577 338.226 335.252 342.229 339.119 344.307C342.986 346.384 347.342 347.329 350.888 350.036C356.253 354.12 358.895 361.729 358.727 369.042C358.558 376.354 356.012 383.28 352.762 389.585C351.249 392.517 349.559 395.441 348.935 398.76C347.71 405.379 351.008 411.883 354.171 417.648C355.1 419.33 356.117 421.111 357.734 421.902C359.103 422.425 360.567 422.558 361.993 422.289L418.15 416.892C419.751 416.74 421.616 416.38 422.305 414.752C422.609 413.752 422.609 412.667 422.305 411.667C420.472 402.834 414.699 395.566 412.649 386.788C411.705 382.695 411.601 378.423 411.496 374.195C411.08 356.764 410.56 339.162 407.253 322.027C405.596 313.491 401.512 305.513 399.895 297.193C398.39 289.431 400.456 282.631 395.684 275.13Z" fill="black"/>
<path d="M307.558 191.067H297.622V176.073C297.615 172.972 297.065 169.904 296.003 167.042C294.94 164.18 293.386 161.582 291.43 159.395C289.473 157.208 287.153 155.475 284.6 154.296C282.048 153.116 279.313 152.513 276.554 152.521C270.98 152.536 265.639 155.039 261.708 159.478C259.761 161.675 258.219 164.283 257.169 167.15C256.119 170.018 255.582 173.089 255.589 176.19V191.067H245.645V175.776C245.851 166.69 249.216 158.056 255.017 151.721C260.819 145.387 268.597 141.855 276.688 141.882C284.778 141.909 292.537 145.493 298.305 151.866C304.073 158.239 307.392 166.896 307.55 175.983L307.558 191.067Z" fill="url(#paint22_linear)"/>
<path d="M515.139 491.097L523.521 500.092L511.456 513.584L496.3 515.05C495.853 513.608 495.888 512.034 496.398 510.619C496.907 509.205 497.857 508.046 499.07 507.359C501.856 505.668 504.891 504.552 508.029 504.067L507.701 497.106L515.139 491.097Z" fill="#373558"/>
<path d="M421.937 490.387L423.17 501.738L394.779 516.021C394.779 516.021 391.232 509.86 394.867 504.508C398.502 499.156 408.526 495.397 408.526 495.397L410.295 490.459L421.937 490.387Z" fill="#373558"/>
<path d="M429.199 315.308C429.199 315.308 418.918 323.844 417.838 337.093C416.757 350.342 416.236 354.992 416.236 354.992L398.222 353.355L397.982 364.544C397.982 364.544 421.881 374.357 425.548 372.684C429.215 371.011 433.802 363.627 433.802 363.627L429.199 315.308Z" fill="url(#paint23_linear)"/>
<path d="M429.199 315.308C429.199 315.308 418.918 323.844 417.838 337.093C416.757 350.342 416.236 354.992 416.236 354.992L398.222 353.355L397.982 364.544C397.982 364.544 421.881 374.357 425.548 372.684C429.215 371.011 433.802 363.627 433.802 363.627L429.199 315.308Z" fill="url(#paint24_linear)"/>
<path d="M436.116 385.924C436.116 385.924 398.486 420.805 398.182 432.696C397.878 444.587 407.429 491.097 407.429 491.097L422.017 491.007L422.441 442.131C422.441 442.131 453.217 430.06 456.564 422.766C459.911 415.471 467.004 379.871 436.116 385.924Z" fill="url(#paint25_linear)"/>
<path d="M436.116 385.924C436.116 385.924 398.486 420.805 398.182 432.696C397.878 444.587 407.429 491.097 407.429 491.097L422.017 491.007L422.441 442.131C422.441 442.131 453.217 430.06 456.564 422.766C459.911 415.471 467.004 379.871 436.116 385.924Z" fill="url(#paint26_linear)"/>
<path d="M436.116 385.924C436.116 385.924 438.414 439.118 453.218 456.315C468.021 473.513 505.907 499.318 505.907 499.318L516.66 491.826L480.287 449.174C480.287 449.174 485.547 401.296 479.326 392.904C473.105 384.512 436.116 385.924 436.116 385.924Z" fill="url(#paint27_linear)"/>
<path d="M436.116 385.924C436.116 385.924 438.414 439.118 453.218 456.315C468.021 473.513 505.907 499.318 505.907 499.318L516.66 491.826L480.287 449.174C480.287 449.174 485.547 401.296 479.326 392.904C473.105 384.512 436.116 385.924 436.116 385.924Z" fill="url(#paint28_linear)"/>
<path d="M436.116 385.924L423.258 324.807C423.258 324.807 430.463 301.502 459.022 309.003C487.581 316.505 479.302 392.904 479.302 392.904C479.302 392.904 447.245 404.849 436.116 385.924Z" fill="url(#paint29_linear)"/>
<path d="M436.116 385.924L423.258 324.807C423.258 324.807 430.463 301.502 459.022 309.003C487.581 316.505 479.302 392.904 479.302 392.904C479.302 392.904 447.245 404.849 436.116 385.924Z" fill="url(#paint30_linear)"/>
<path d="M458.053 318.402C458.053 318.402 456.34 308.23 465.531 310.946C474.723 313.662 489.03 348.723 488.501 353.598C487.973 358.473 443.258 360.479 443.258 360.479L442.193 348.786L465.699 344.37C465.699 344.37 457.069 327.748 458.053 318.402Z" fill="url(#paint31_linear)"/>
<path d="M458.053 318.402C458.053 318.402 456.34 308.23 465.531 310.946C474.723 313.662 489.03 348.723 488.501 353.598C487.973 358.473 443.258 360.479 443.258 360.479L442.193 348.786L465.699 344.37C465.699 344.37 457.069 327.748 458.053 318.402Z" fill="url(#paint32_linear)"/>
<path d="M453.666 296.69C452.564 299.249 450.688 301.286 448.374 302.437C447.985 302.587 447.608 302.77 447.245 302.986C447.082 303.101 446.934 303.24 446.804 303.4C446.004 304.407 446.564 305.9 446.804 307.195C447.253 310.145 445.731 313.168 443.538 314.859C442.305 315.747 440.954 316.406 439.535 316.81C437.541 317.395 435.395 317.53 433.882 316.729C431.48 315.461 431.72 311.333 431.192 308.805C429.447 300.602 427.917 292.192 428.71 283.711C429.134 279.213 430.255 274.626 432.665 270.974C435.075 267.322 438.91 264.678 442.961 264.759C447.013 264.84 450.856 267.709 453.746 271.055C454.756 272.172 455.609 273.455 456.276 274.86C458.149 279.078 457.157 284.124 456.116 288.693C455.586 291.459 454.763 294.143 453.666 296.69Z" fill="url(#paint33_linear)"/>
<path d="M456.884 276.794C456.884 276.794 444.875 276.794 437.613 281.543C431.136 285.761 429.351 294.774 428.806 294.621C427.581 294.306 423.586 285.626 425.267 283.711C426.949 281.795 425.62 281.786 425.62 281.786C425.62 281.786 423.69 278.188 424.659 271.73C425.454 267.013 426.54 262.363 427.909 257.815C427.909 257.815 428.414 255.675 435.684 257.815C442.953 259.956 455.211 266.495 455.892 269.148C456.572 271.802 456.012 273.016 456.012 273.016C456.012 273.016 458.005 274.662 456.884 276.794Z" fill="url(#paint34_linear)"/>
<path d="M456.884 276.794C456.884 276.794 444.875 276.794 437.613 281.543C431.136 285.761 429.351 294.774 428.806 294.621C427.581 294.306 423.586 285.626 425.267 283.711C426.949 281.795 425.62 281.786 425.62 281.786C425.62 281.786 423.69 278.188 424.659 271.73C425.454 267.013 426.54 262.363 427.909 257.815C427.909 257.815 428.414 255.675 435.684 257.815C442.953 259.956 455.211 266.495 455.892 269.148C456.572 271.802 456.012 273.016 456.012 273.016C456.012 273.016 458.005 274.662 456.884 276.794Z" fill="url(#paint35_linear)"/>
<path d="M437.613 281.525C441.827 282.669 446.108 283.475 450.423 283.935C454.298 284.214 457.093 283.036 457.117 282.829C457.165 282.37 455.86 290.133 455.86 290.133L452.921 291.293C451.787 291.743 450.578 291.903 449.382 291.761L431.056 289.62C431.056 289.62 434.178 283.324 437.613 281.525Z" fill="url(#paint36_linear)"/>
<path d="M437.613 281.525C441.827 282.669 446.108 283.475 450.423 283.935C454.298 284.214 457.093 283.036 457.117 282.829C457.165 282.37 455.86 290.133 455.86 290.133L452.921 291.293C451.787 291.743 450.578 291.903 449.382 291.761L431.056 289.62C431.056 289.62 434.178 283.324 437.613 281.525Z" fill="url(#paint37_linear)"/>
<path d="M445.155 285.5C445.682 285.338 446.239 285.357 446.756 285.554C447.109 285.626 447.429 285.833 447.661 286.139C447.794 286.372 447.887 286.632 447.933 286.904C447.982 287.058 447.982 287.226 447.933 287.38C447.866 287.469 447.778 287.535 447.679 287.572C447.58 287.608 447.474 287.614 447.373 287.587C446.418 287.596 445.471 287.391 444.587 286.985C443.858 286.562 444.539 285.743 445.155 285.5Z" fill="white"/>
<path d="M453.602 285.941C453.752 285.79 453.928 285.674 454.12 285.601C454.311 285.529 454.513 285.5 454.715 285.518C454.845 285.51 454.976 285.532 455.099 285.583C455.221 285.634 455.333 285.713 455.427 285.815C455.562 286.014 455.668 286.235 455.74 286.472C455.803 286.617 455.831 286.778 455.82 286.94C455.801 287.031 455.758 287.115 455.697 287.179C455.636 287.243 455.558 287.285 455.475 287.299C454.837 287.584 454.141 287.662 453.466 287.524C452.889 287.335 453.218 286.346 453.602 285.941Z" fill="white"/>
<path d="M443.498 314.859C442.266 315.747 440.914 316.406 439.495 316.81C438.302 315.296 437.539 313.417 437.301 311.414C437.067 310.024 436.926 308.617 436.877 307.204C436.729 305.976 436.998 304.731 437.629 303.714C438.046 303.28 438.548 302.959 439.094 302.778C439.639 302.597 440.215 302.561 440.776 302.671C441.905 302.815 442.993 303.256 444.122 303.391C445.083 303.507 446.236 303.013 447.245 302.95C447.082 303.065 446.934 303.204 446.804 303.364C446.004 304.371 446.564 305.864 446.804 307.159C447.213 310.145 445.692 313.168 443.498 314.859Z" fill="url(#paint38_linear)"/>
<path d="M392.001 347.725C391.537 347.311 390.985 347.042 390.4 346.942C390.108 346.902 389.813 346.983 389.571 347.17C389.329 347.357 389.157 347.638 389.087 347.958C389.086 348.416 389.224 348.86 389.479 349.218L390.56 351.115C390.696 351.312 390.777 351.55 390.792 351.799C390.792 352.429 389.991 352.555 389.423 352.474C385.9 351.97 382.385 350.747 378.871 351.268C378.6 351.277 378.341 351.395 378.142 351.601C378.04 351.772 377.994 351.976 378.01 352.181C378.026 352.385 378.103 352.578 378.23 352.725C378.495 353.012 378.82 353.22 379.175 353.328C381.143 354.138 383.164 354.776 385.22 355.235C384.987 355.883 384.227 355.999 383.618 356.026C381.917 356.098 380.223 356.314 378.55 356.674C377.598 356.872 376.429 357.412 376.421 358.473C376.448 358.827 376.573 359.163 376.778 359.434C376.983 359.705 377.258 359.897 377.566 359.984C378.185 360.147 378.827 360.172 379.455 360.056C381.659 359.849 383.877 359.912 386.068 360.245C383.699 360.55 381.448 361.577 379.559 363.213C379.386 363.348 379.244 363.527 379.143 363.735C378.927 364.256 379.335 364.886 379.823 365.066C380.329 365.182 380.854 365.148 381.345 364.967C383.534 364.396 385.768 364.071 388.014 363.996C386.66 364.696 385.399 365.605 384.267 366.694C383.924 366.991 383.649 367.377 383.466 367.818C383.373 368.041 383.343 368.291 383.38 368.534C383.418 368.777 383.52 369.001 383.674 369.176C383.879 369.318 384.11 369.403 384.349 369.425C384.589 369.447 384.829 369.405 385.051 369.302C387.718 368.493 390.071 366.55 392.802 366.1C394.227 365.858 395.876 365.956 396.869 364.778C397.293 364.195 397.59 363.508 397.734 362.772C398.326 360.461 399.551 355.577 398.31 353.328C397.822 352.429 396.637 351.691 395.908 351.026C394.658 349.849 393.354 348.747 392.001 347.725Z" fill="url(#paint39_linear)"/>
<path d="M436.62 344.037C436.156 343.624 435.604 343.354 435.019 343.254C434.727 343.214 434.433 343.295 434.191 343.482C433.949 343.67 433.776 343.95 433.706 344.271C433.705 344.728 433.844 345.173 434.098 345.53L435.179 347.428C435.315 347.625 435.396 347.863 435.411 348.111C435.371 348.741 434.611 348.867 434.042 348.786C430.52 348.282 427.005 347.05 423.49 347.581C423.22 347.586 422.961 347.701 422.761 347.904C422.658 348.076 422.61 348.282 422.626 348.489C422.642 348.695 422.721 348.889 422.849 349.038C423.114 349.325 423.439 349.532 423.794 349.64C425.762 350.451 427.783 351.088 429.839 351.547C429.607 352.195 428.846 352.303 428.238 352.33C426.536 352.409 424.842 352.628 423.17 352.986C422.217 353.184 421.048 353.715 421.04 354.785C421.067 355.14 421.192 355.476 421.397 355.747C421.602 356.017 421.878 356.21 422.185 356.296C422.804 356.46 423.446 356.484 424.074 356.368C426.278 356.161 428.496 356.224 430.688 356.557C428.32 356.863 426.072 357.889 424.186 359.525C424.012 359.657 423.866 359.833 423.762 360.038C423.695 360.314 423.728 360.607 423.852 360.856C423.976 361.105 424.183 361.29 424.427 361.369C424.932 361.493 425.457 361.462 425.948 361.279C428.136 360.704 430.371 360.379 432.617 360.308C431.263 361.009 430.002 361.917 428.87 363.006C428.527 363.304 428.252 363.689 428.07 364.131C427.979 364.354 427.95 364.603 427.987 364.846C428.024 365.088 428.126 365.312 428.278 365.489C428.484 365.63 428.716 365.716 428.957 365.738C429.198 365.759 429.439 365.717 429.663 365.615C432.321 364.805 434.675 362.862 437.405 362.413C438.83 362.17 440.479 362.269 441.472 361.09C441.897 360.507 442.193 359.82 442.337 359.085C442.937 356.773 444.154 351.889 442.913 349.631C442.425 348.732 441.24 348.003 440.511 347.338C439.267 346.162 437.968 345.06 436.62 344.037Z" fill="url(#paint40_linear)"/>
<path d="M392.001 347.725C391.537 347.311 390.985 347.042 390.4 346.942C390.108 346.902 389.813 346.983 389.571 347.17C389.329 347.357 389.157 347.638 389.087 347.958C389.086 348.416 389.224 348.86 389.479 349.218L390.56 351.115C390.696 351.312 390.777 351.55 390.792 351.799C390.792 352.429 389.991 352.555 389.423 352.474C385.9 351.97 382.385 350.747 378.871 351.268C378.6 351.277 378.341 351.395 378.142 351.601C378.04 351.772 377.994 351.976 378.01 352.181C378.026 352.385 378.103 352.578 378.23 352.725C378.495 353.012 378.82 353.22 379.175 353.328C381.143 354.138 383.164 354.776 385.22 355.235C384.987 355.883 384.227 355.999 383.618 356.026C381.917 356.098 380.223 356.314 378.55 356.674C377.598 356.872 376.429 357.412 376.421 358.473C376.448 358.827 376.573 359.163 376.778 359.434C376.983 359.705 377.258 359.897 377.566 359.984C378.185 360.147 378.827 360.172 379.455 360.056C381.659 359.849 383.877 359.912 386.068 360.245C383.699 360.55 381.448 361.577 379.559 363.213C379.386 363.348 379.244 363.527 379.143 363.735C378.927 364.256 379.335 364.886 379.823 365.066C380.329 365.182 380.854 365.148 381.345 364.967C383.534 364.396 385.768 364.071 388.014 363.996C386.66 364.696 385.399 365.605 384.267 366.694C383.924 366.991 383.649 367.377 383.466 367.818C383.373 368.041 383.343 368.291 383.38 368.534C383.418 368.777 383.52 369.001 383.674 369.176C383.879 369.318 384.11 369.403 384.349 369.425C384.589 369.447 384.829 369.405 385.051 369.302C387.718 368.493 390.071 366.55 392.802 366.1C394.227 365.858 395.876 365.956 396.869 364.778C397.293 364.195 397.59 363.508 397.734 362.772C398.326 360.461 399.551 355.577 398.31 353.328C397.822 352.429 396.637 351.691 395.908 351.026C394.658 349.849 393.354 348.747 392.001 347.725Z" fill="url(#paint41_linear)"/>
<path d="M436.62 344.037C436.156 343.624 435.604 343.354 435.019 343.254C434.727 343.214 434.433 343.295 434.191 343.482C433.949 343.67 433.776 343.95 433.706 344.271C433.705 344.728 433.844 345.173 434.098 345.53L435.179 347.428C435.315 347.625 435.396 347.863 435.411 348.111C435.371 348.741 434.611 348.867 434.042 348.786C430.52 348.282 427.005 347.05 423.49 347.581C423.22 347.586 422.961 347.701 422.761 347.904C422.658 348.076 422.61 348.282 422.626 348.489C422.642 348.695 422.721 348.889 422.849 349.038C423.114 349.325 423.439 349.532 423.794 349.64C425.762 350.451 427.783 351.088 429.839 351.547C429.607 352.195 428.846 352.303 428.238 352.33C426.536 352.409 424.842 352.628 423.17 352.986C422.217 353.184 421.048 353.715 421.04 354.785C421.067 355.14 421.192 355.476 421.397 355.747C421.602 356.017 421.878 356.21 422.185 356.296C422.804 356.46 423.446 356.484 424.074 356.368C426.278 356.161 428.496 356.224 430.688 356.557C428.32 356.863 426.072 357.889 424.186 359.525C424.012 359.657 423.866 359.833 423.762 360.038C423.695 360.314 423.728 360.607 423.852 360.856C423.976 361.105 424.183 361.29 424.427 361.369C424.932 361.493 425.457 361.462 425.948 361.279C428.136 360.704 430.371 360.379 432.617 360.308C431.263 361.009 430.002 361.917 428.87 363.006C428.527 363.304 428.252 363.689 428.07 364.131C427.979 364.354 427.95 364.603 427.987 364.846C428.024 365.088 428.126 365.312 428.278 365.489C428.484 365.63 428.716 365.716 428.957 365.738C429.198 365.759 429.439 365.717 429.663 365.615C432.321 364.805 434.675 362.862 437.405 362.413C438.83 362.17 440.479 362.269 441.472 361.09C441.897 360.507 442.193 359.82 442.337 359.085C442.937 356.773 444.154 351.889 442.913 349.631C442.425 348.732 441.24 348.003 440.511 347.338C439.267 346.162 437.968 345.06 436.62 344.037Z" fill="url(#paint42_linear)"/>
</g>
<defs>
<linearGradient id="paint0_linear" x1="71.4594" y1="490.436" x2="71.4594" y2="515.54" gradientUnits="userSpaceOnUse">
<stop stop-color="#FDB4B4"/>
<stop offset="1" stop-color="#2B2B2B"/>
</linearGradient>
<linearGradient id="paint1_linear" x1="477.323" y1="496.687" x2="477.323" y2="537" gradientUnits="userSpaceOnUse">
<stop stop-color="#FDB4B4"/>
<stop offset="1" stop-color="#2B2B2B"/>
</linearGradient>
<linearGradient id="paint2_linear" x1="270.302" y1="0" x2="270.302" y2="495.368" gradientUnits="userSpaceOnUse">
<stop offset="0.015625"/>
<stop offset="1" stop-color="#FF0000" stop-opacity="0.7"/>
</linearGradient>
<linearGradient id="paint3_linear" x1="281.317" y1="54.9258" x2="281.317" y2="422.136" gradientUnits="userSpaceOnUse">
<stop offset="0.015625"/>
<stop offset="1" stop-color="#FF0000" stop-opacity="0.7"/>
</linearGradient>
<linearGradient id="paint4_linear" x1="218.407" y1="247.885" x2="-389.111" y2="272.876" gradientUnits="userSpaceOnUse">
<stop stop-opacity="0"/>
<stop offset="0.97" stop-color="#0C0C11"/>
<stop offset="0.98" stop-color="#312F43"/>
<stop offset="0.99" stop-color="#3F3D56"/>
</linearGradient>
<linearGradient id="paint5_linear" x1="30.9233" y1="267.715" x2="30.9233" y2="411.454" gradientUnits="userSpaceOnUse">
<stop offset="0.015625"/>
<stop offset="1" stop-color="#FF0000" stop-opacity="0.7"/>
</linearGradient>
<linearGradient id="paint6_linear" x1="3164.73" y1="7471.92" x2="23596.6" y2="6181.39" gradientUnits="userSpaceOnUse">
<stop stop-opacity="0"/>
<stop offset="0.97" stop-color="#0C0C11"/>
<stop offset="0.98" stop-color="#312F43"/>
<stop offset="0.99" stop-color="#3F3D56"/>
</linearGradient>
<linearGradient id="paint7_linear" x1="62.6093" y1="255.618" x2="62.6093" y2="405.226" gradientUnits="userSpaceOnUse">
<stop offset="0.015625"/>
<stop offset="1" stop-color="#FF0000" stop-opacity="0.7"/>
</linearGradient>
<linearGradient id="paint8_linear" x1="17.1759" y1="333.684" x2="211.644" y2="323.264" gradientUnits="userSpaceOnUse">
<stop stop-opacity="0"/>
<stop offset="0.29" stop-opacity="0.29"/>
<stop offset="0.97" stop-color="#0C0C11"/>
<stop offset="0.98" stop-color="#312F43"/>
<stop offset="0.99" stop-color="#3F3D56"/>
</linearGradient>
<linearGradient id="paint9_linear" x1="99.3637" y1="299.506" x2="99.3637" y2="411.481" gradientUnits="userSpaceOnUse">
<stop offset="0.015625"/>
<stop offset="1" stop-color="#FF0000" stop-opacity="0.7"/>
</linearGradient>
<linearGradient id="paint10_linear" x1="170.297" y1="466.362" x2="50.2752" y2="318.434" gradientUnits="userSpaceOnUse">
<stop stop-opacity="0"/>
<stop offset="0.84" stop-opacity="0.66"/>
<stop offset="0.97"/>
</linearGradient>
<linearGradient id="paint11_linear" x1="64.3541" y1="401.512" x2="64.3541" y2="503.995" gradientUnits="userSpaceOnUse">
<stop offset="0.015625"/>
<stop offset="1" stop-color="#FF0000" stop-opacity="0.7"/>
</linearGradient>
<linearGradient id="paint12_linear" x1="129.041" y1="446.844" x2="3.61171" y2="455.664" gradientUnits="userSpaceOnUse">
<stop stop-opacity="0"/>
<stop offset="0.87" stop-opacity="0.66"/>
<stop offset="1"/>
</linearGradient>
<linearGradient id="paint13_linear" x1="280.232" y1="-20.7991" x2="288.619" y2="606.456" gradientUnits="userSpaceOnUse">
<stop stop-opacity="0"/>
<stop offset="0.5" stop-opacity="0.38"/>
<stop offset="0.97" stop-color="#0C0C11"/>
<stop offset="0.98" stop-color="#312F43"/>
<stop offset="0.99" stop-color="#3F3D56"/>
</linearGradient>
<linearGradient id="paint14_linear" x1="942.171" y1="783.668" x2="945.663" y2="1146.16" gradientUnits="userSpaceOnUse">
<stop stop-opacity="0"/>
<stop offset="0.5" stop-opacity="0.38"/>
<stop offset="0.97" stop-color="#0C0C11"/>
<stop offset="0.98" stop-color="#312F43"/>
<stop offset="0.99" stop-color="#3F3D56"/>
</linearGradient>
<linearGradient id="paint15_linear" x1="1163.36" y1="781.67" x2="1166.85" y2="1144.28" gradientUnits="userSpaceOnUse">
<stop stop-opacity="0"/>
<stop offset="0.5" stop-opacity="0.38"/>
<stop offset="0.97" stop-color="#0C0C11"/>
<stop offset="0.98" stop-color="#312F43"/>
<stop offset="0.99" stop-color="#3F3D56"/>
</linearGradient>
<linearGradient id="paint16_linear" x1="1384.45" y1="779.783" x2="1387.94" y2="1142.28" gradientUnits="userSpaceOnUse">
<stop stop-opacity="0"/>
<stop offset="0.5" stop-opacity="0.38"/>
<stop offset="0.97" stop-color="#0C0C11"/>
<stop offset="0.98" stop-color="#312F43"/>
<stop offset="0.99" stop-color="#3F3D56"/>
</linearGradient>
<linearGradient id="paint17_linear" x1="303.611" y1="62.9039" x2="246.307" y2="386.766" gradientUnits="userSpaceOnUse">
<stop offset="0.01" stop-color="#781010"/>
<stop offset="0.99" stop-opacity="0"/>
</linearGradient>
<linearGradient id="paint18_linear" x1="276.601" y1="233.127" x2="276.601" y2="280.742" gradientUnits="userSpaceOnUse">
<stop offset="0.015625"/>
<stop offset="1" stop-color="#FF0000" stop-opacity="0.7"/>
</linearGradient>
<linearGradient id="paint19_linear" x1="64.3653" y1="422.136" x2="64.3653" y2="428.064" gradientUnits="userSpaceOnUse">
<stop offset="0.015625"/>
<stop offset="1" stop-color="#FF0000" stop-opacity="0.7"/>
</linearGradient>
<linearGradient id="paint20_linear" x1="64.3692" y1="442.347" x2="64.3692" y2="448.274" gradientUnits="userSpaceOnUse">
<stop offset="0.015625"/>
<stop offset="1" stop-color="#FF0000" stop-opacity="0.7"/>
</linearGradient>
<linearGradient id="paint21_linear" x1="64.3814" y1="462.567" x2="64.3814" y2="468.485" gradientUnits="userSpaceOnUse">
<stop offset="0.015625"/>
<stop offset="1" stop-color="#FF0000" stop-opacity="0.7"/>
</linearGradient>
<linearGradient id="paint22_linear" x1="25779.8" y1="-8932.24" x2="25727.9" y2="-4749.18" gradientUnits="userSpaceOnUse">
<stop offset="0.01"/>
<stop offset="0.99" stop-opacity="0"/>
</linearGradient>
<linearGradient id="paint23_linear" x1="415.892" y1="315.308" x2="415.892" y2="372.876" gradientUnits="userSpaceOnUse">
<stop offset="0.015625"/>
<stop offset="1" stop-color="#FF0000" stop-opacity="0.7"/>
</linearGradient>
<linearGradient id="paint24_linear" x1="406.741" y1="332.461" x2="514.853" y2="425.803" gradientUnits="userSpaceOnUse">
<stop offset="0.01"/>
<stop offset="0.15" stop-opacity="0.52"/>
<stop offset="0.99" stop-opacity="0"/>
</linearGradient>
<linearGradient id="paint25_linear" x1="428.945" y1="385.235" x2="428.945" y2="491.097" gradientUnits="userSpaceOnUse">
<stop offset="0.015625"/>
<stop offset="1" stop-color="#FF0000" stop-opacity="0.7"/>
</linearGradient>
<linearGradient id="paint26_linear" x1="435.612" y1="444.731" x2="312.546" y2="351.848" gradientUnits="userSpaceOnUse">
<stop offset="0.01"/>
<stop offset="0.16" stop-opacity="0.52"/>
<stop offset="1" stop-opacity="0"/>
</linearGradient>
<linearGradient id="paint27_linear" x1="476.388" y1="385.835" x2="476.388" y2="499.318" gradientUnits="userSpaceOnUse">
<stop offset="0.015625"/>
<stop offset="1" stop-color="#FF0000" stop-opacity="0.7"/>
</linearGradient>
<linearGradient id="paint28_linear" x1="50049.5" y1="19212.8" x2="67585" y2="16047.6" gradientUnits="userSpaceOnUse">
<stop offset="0.01"/>
<stop offset="0.15" stop-opacity="0.52"/>
<stop offset="0.99" stop-opacity="0"/>
</linearGradient>
<linearGradient id="paint29_linear" x1="451.837" y1="307.515" x2="451.837" y2="396.623" gradientUnits="userSpaceOnUse">
<stop offset="0.015625"/>
<stop offset="1" stop-color="#FF0000" stop-opacity="0.7"/>
</linearGradient>
<linearGradient id="paint30_linear" x1="34708.6" y1="7369.3" x2="45985" y2="2682.57" gradientUnits="userSpaceOnUse">
<stop offset="0.01"/>
<stop offset="0.15" stop-opacity="0.52"/>
<stop offset="0.99" stop-opacity="0"/>
</linearGradient>
<linearGradient id="paint31_linear" x1="465.354" y1="310.485" x2="465.354" y2="360.479" gradientUnits="userSpaceOnUse">
<stop offset="0.015625"/>
<stop offset="1" stop-color="#FF0000" stop-opacity="0.7"/>
</linearGradient>
<linearGradient id="paint32_linear" x1="29157.8" y1="1970.78" x2="35990.4" y2="3825.12" gradientUnits="userSpaceOnUse">
<stop offset="0.01"/>
<stop offset="0.15" stop-opacity="0.52"/>
<stop offset="0.99" stop-opacity="0"/>
</linearGradient>
<linearGradient id="paint33_linear" x1="428.802" y1="287.838" x2="456.348" y2="294.157" gradientUnits="userSpaceOnUse">
<stop stop-color="#ECC4D7"/>
<stop offset="0.42" stop-color="#EFD4D1"/>
<stop offset="1" stop-color="#F2EAC9"/>
</linearGradient>
<linearGradient id="paint34_linear" x1="440.807" y1="256.864" x2="440.807" y2="294.623" gradientUnits="userSpaceOnUse">
<stop offset="0.015625"/>
<stop offset="1" stop-color="#FF0000" stop-opacity="0.7"/>
</linearGradient>
<linearGradient id="paint35_linear" x1="426.044" y1="277.019" x2="517.995" y2="246.46" gradientUnits="userSpaceOnUse">
<stop offset="0.01"/>
<stop offset="0.03" stop-opacity="0.93"/>
<stop offset="0.51" stop-opacity="0.05"/>
<stop offset="0.58" stop-opacity="0.03"/>
<stop offset="0.99" stop-opacity="0"/>
</linearGradient>
<linearGradient id="paint36_linear" x1="444.087" y1="281.525" x2="444.087" y2="291.811" gradientUnits="userSpaceOnUse">
<stop offset="0.015625"/>
<stop offset="1" stop-color="#FF0000" stop-opacity="0.7"/>
</linearGradient>
<linearGradient id="paint37_linear" x1="16296.8" y1="112.006" x2="18243.3" y2="-218.713" gradientUnits="userSpaceOnUse">
<stop offset="0.01"/>
<stop offset="0.15" stop-opacity="0.52"/>
<stop offset="0.99" stop-opacity="0"/>
</linearGradient>
<linearGradient id="paint38_linear" x1="-4511.33" y1="12755.3" x2="-4033.74" y2="12907.3" gradientUnits="userSpaceOnUse">
<stop stop-color="#ECC4D7"/>
<stop offset="0.42" stop-color="#EFD4D1"/>
<stop offset="1" stop-color="#F2EAC9"/>
</linearGradient>
<linearGradient id="paint39_linear" x1="387.633" y1="346.932" x2="387.633" y2="369.431" gradientUnits="userSpaceOnUse">
<stop offset="0.015625"/>
<stop offset="1" stop-color="#FF0000" stop-opacity="0.7"/>
</linearGradient>
<linearGradient id="paint40_linear" x1="432.245" y1="343.244" x2="432.245" y2="365.743" gradientUnits="userSpaceOnUse">
<stop offset="0.015625"/>
<stop offset="1" stop-color="#FF0000" stop-opacity="0.7"/>
</linearGradient>
<linearGradient id="paint41_linear" x1="12728.3" y1="1346.56" x2="12548.8" y2="7000.51" gradientUnits="userSpaceOnUse">
<stop offset="0.01"/>
<stop offset="0.15" stop-opacity="0.52"/>
<stop offset="0.99" stop-opacity="0"/>
</linearGradient>
<linearGradient id="paint42_linear" x1="14010.5" y1="1355.93" x2="13831" y2="7009.9" gradientUnits="userSpaceOnUse">
<stop offset="0.01"/>
<stop offset="0.15" stop-opacity="0.52"/>
<stop offset="0.99" stop-opacity="0"/>
</linearGradient>
</defs>
</svg>
