<svg width="240" height="240" viewBox="0 0 240 240" fill="none" xmlns="http://www.w3.org/2000/svg">
<g style="mix-blend-mode:color-dodge">
<path d="M6.70259 178.855L112.645 238.25C114.692 239.396 117.014 240 119.377 240C121.74 240 124.061 239.396 126.108 238.25L237.161 176.181C238.016 175.7 238.728 175.012 239.226 174.183C239.724 173.355 239.99 172.414 240 171.455C240.009 170.495 239.761 169.55 239.279 168.713C238.797 167.875 238.099 167.173 237.253 166.678L128.003 102.841C127.123 102.331 126.117 102.062 125.092 102.062C124.067 102.062 123.061 102.331 122.181 102.841L6.67486 169.352C5.82571 169.842 5.12286 170.539 4.63561 171.374C4.14837 172.208 3.89359 173.152 3.89639 174.111C3.89918 175.07 4.15947 176.012 4.65157 176.844C5.14367 177.676 5.85059 178.369 6.70259 178.855Z" fill="url(#paint0_linear)"/>
<path d="M183.908 38.1783L115.694 0.552716C115.03 0.190334 114.281 0 113.518 0C112.756 0 112.007 0.190334 111.342 0.552716V0.552716L106.722 2.93067L109.06 3.61265C109.014 3.85553 108.99 4.10164 108.986 4.34847L107.674 137.317C107.656 139.181 108.153 141.016 109.113 142.631C110.074 144.245 111.463 145.58 113.135 146.497L181.644 184.059C181.782 184.132 181.924 184.198 182.069 184.257L181.21 186.33L185.497 184.311C185.782 184.2 186.054 184.061 186.31 183.898V183.898C186.924 183.507 187.429 182.975 187.779 182.348C188.129 181.722 188.313 181.021 188.316 180.308V45.5544C188.317 44.0565 187.91 42.5848 187.136 41.2891C186.362 39.9935 185.248 38.9201 183.908 38.1783V38.1783Z" fill="url(#paint1_linear)"/>
<path style="mix-blend-mode:multiply" opacity="0.62" d="M96.049 177.455L47.8228 201.737C47.8228 201.737 77.1614 220.258 96.3724 228.953L155.687 194.63" fill="url(#paint2_linear)"/>
<path d="M108.773 148.516L177.282 186.078C177.966 186.453 178.738 186.647 179.522 186.642C180.307 186.637 181.076 186.432 181.754 186.048C182.432 185.664 182.994 185.114 183.385 184.454C183.776 183.793 183.981 183.044 183.982 182.283V47.5824C183.982 46.0835 183.574 44.6113 182.798 43.3155C182.022 42.0198 180.907 40.947 179.565 40.2063L111.324 2.58966C110.646 2.21599 109.881 2.01982 109.102 2.02042C108.323 2.02102 107.557 2.21837 106.881 2.59309C106.204 2.96782 105.639 3.50702 105.242 4.15774C104.845 4.80846 104.629 5.54832 104.615 6.30466L103.312 139.291C103.286 141.163 103.779 143.007 104.74 144.631C105.701 146.254 107.094 147.596 108.773 148.516Z" fill="url(#paint3_linear)"/>
<path d="M108.126 140.565L178.456 179.124V50.9834L109.374 12.9001L108.126 140.565Z" fill="url(#paint4_linear)"/>
<path d="M159.587 106.601V134.517L171.683 141.92V113.672L159.587 106.601Z" fill="url(#paint5_linear)"/>
<path d="M160.539 112.972V118.544L163.154 120.222V114.587L160.539 112.972Z" fill="url(#paint6_linear)"/>
<path d="M164.216 114.937V120.509L166.822 122.187V116.552L164.216 114.937Z" fill="url(#paint7_linear)"/>
<path d="M167.885 117.028V122.6L170.5 124.278V118.643L167.885 117.028Z" fill="url(#paint8_linear)"/>
<path d="M160.539 120.222V125.795L163.154 127.482V121.838L160.539 120.222Z" fill="url(#paint9_linear)"/>
<path d="M164.216 122.188V127.76L166.822 129.447V123.803L164.216 122.188Z" fill="url(#paint10_linear)"/>
<path d="M167.885 124.278V129.86L170.5 131.538V125.894L167.885 124.278Z" fill="url(#paint11_linear)"/>
<path d="M160.539 127.455V133.027L163.154 134.705V129.07L160.539 127.455Z" fill="url(#paint12_linear)"/>
<path d="M164.216 129.42V134.993L166.822 136.671V131.035L164.216 129.42Z" fill="url(#paint13_linear)"/>
<path d="M167.885 131.511V137.083L170.5 138.77V133.126L167.885 131.511Z" fill="url(#paint14_linear)"/>
<path d="M146.133 125.418C147.61 126.283 148.844 127.491 149.721 128.934C150.599 130.376 151.093 132.008 151.159 133.682C151.159 133.79 151.159 133.895 151.159 133.997C151.128 135.225 150.741 136.42 150.043 137.445C149.346 138.47 148.365 139.284 147.214 139.793C145.767 140.274 144.2 140.293 142.741 139.847C139.322 138.95 135.09 136.733 133.501 133.503C133.089 132.667 132.857 131.759 132.819 130.833C132.781 129.907 132.937 128.984 133.279 128.119C134.342 125.427 137.225 123.973 140.071 123.776C142.22 123.681 144.344 124.256 146.133 125.418V125.418Z" fill="url(#paint15_linear)"/>
<path d="M149.626 128.774L148.092 129.402C147.511 129.269 146.97 129.004 146.514 128.63C146.058 128.256 145.7 127.783 145.467 127.249C145.319 126.899 144.719 127.051 144.876 127.41C145.313 128.451 146.152 129.286 147.214 129.734L146.706 129.914C145.042 130.488 143.009 131.179 141.235 130.811C140.91 130.774 140.598 130.663 140.324 130.489C140.051 130.314 139.823 130.08 139.658 129.804C139.494 129.529 139.398 129.22 139.379 128.903C139.359 128.585 139.415 128.268 139.544 127.975C140.219 126.602 142.076 125.965 143.444 125.508C144.072 125.301 144.7 125.113 145.347 124.96C143.728 124.101 141.894 123.7 140.052 123.803C137.206 124 134.323 125.472 133.261 128.146C132.919 129.011 132.763 129.934 132.801 130.86C132.839 131.786 133.071 132.694 133.482 133.53C135.09 136.76 139.322 138.914 142.723 139.874C144.181 140.32 145.749 140.301 147.195 139.82C148.347 139.311 149.327 138.497 150.025 137.472C150.723 136.447 151.109 135.252 151.141 134.023C151.141 133.916 151.141 133.811 151.141 133.709C151.139 131.956 150.612 130.242 149.626 128.774V128.774Z" fill="#393B5B"/>
<path d="M136.587 135.459C136.292 135.244 117.293 135.737 114.327 175.526L103.238 169.334C101.186 170.256 99.4779 171.772 98.348 173.674C97.218 175.577 96.7217 177.772 96.927 179.958C97.4906 187.855 122.505 201.001 133.233 197.466C143.961 193.93 139.221 169.011 139.221 169.011L145.467 154.752" fill="#393B5B"/>
<path d="M135.645 187.729C135.645 187.729 147.131 191.48 148.896 189.246C150.661 187.012 158.995 169.316 154.116 163.564C149.237 157.812 138.731 163.564 135.321 166.256" fill="#393B5B"/>
<path d="M147.482 189.775C148.896 189.255 155.05 191.57 156.048 191.014C157.046 190.457 157.295 197.744 149.847 196.003C145.232 194.899 140.777 193.238 136.587 191.059C136.587 191.059 138.509 185.674 141.485 185.333" fill="#373558"/>
<path d="M167.275 128.774L166.868 129.214V128.882C167.133 128.423 167.443 127.991 167.792 127.59C167.912 127.453 167.996 127.292 168.04 127.118C168.084 126.944 168.085 126.763 168.043 126.589C168.002 126.414 167.92 126.252 167.802 126.114C167.685 125.976 167.536 125.867 167.367 125.795L167.45 125.723C168.513 124.763 166.915 123.219 165.861 124.18L165.011 124.924C164.8 124.72 164.519 124.598 164.222 124.58C163.924 124.561 163.63 124.649 163.394 124.826C162.812 125.265 162.091 125.669 161.823 126.369C161.646 127.199 161.615 128.051 161.731 128.891V130.802C161.537 130.461 161.333 130.12 161.121 129.797C160.345 128.621 158.413 129.689 159.171 130.901C159.76 131.825 160.264 132.798 160.677 133.808L160.77 134.05C160.64 134.723 160.502 135.387 160.345 136.06C160.243 136.748 160.095 137.429 159.901 138.097C159.692 138.246 159.552 138.469 159.511 138.717C159.469 138.966 159.53 139.22 159.679 139.425C159.75 139.565 159.851 139.687 159.977 139.784C160.102 139.88 160.248 139.948 160.404 139.982C160.56 140.017 160.722 140.017 160.878 139.982C161.034 139.948 161.18 139.881 161.306 139.784C161.53 139.939 161.803 140.015 162.078 140.001C162.353 139.986 162.615 139.881 162.821 139.704C163.057 139.783 163.315 139.783 163.551 139.704C163.704 139.927 163.939 140.086 164.209 140.148C164.478 140.21 164.762 140.169 165.002 140.036C166.027 139.497 166.258 137.954 166.517 136.958C166.894 135.62 167.044 134.232 166.961 132.848C166.961 132.848 166.961 132.785 166.961 132.749C167.484 131.895 168.104 131.101 168.809 130.38C169.872 129.294 168.282 127.742 167.275 128.774Z" fill="url(#paint16_linear)"/>
<path d="M162.784 129.034L163.117 129.124C163.104 128.67 163.135 128.217 163.209 127.769C163.403 126.701 164.438 125.759 165.205 125.014C165.238 124.976 165.255 124.928 165.253 124.879C165.251 124.829 165.229 124.782 165.193 124.747C165.157 124.712 165.109 124.692 165.058 124.69C165.007 124.688 164.958 124.704 164.919 124.736C164.067 125.445 163.378 126.319 162.895 127.302C162.723 127.854 162.651 128.431 162.682 129.007L162.784 129.034Z" fill="#393B5B"/>
<path d="M167.192 125.472C166.591 126.369 165.75 127.024 165.159 127.877C164.815 128.455 164.613 129.103 164.567 129.77C164.703 129.854 164.832 129.944 164.955 130.039C165.018 129.181 165.339 128.36 165.88 127.679C166.48 127.044 167.038 126.372 167.552 125.669C167.691 125.454 167.34 125.256 167.192 125.472Z" fill="#393B5B"/>
<path d="M166.582 129.241C166.317 129.797 166.077 130.362 165.861 130.937L166.009 131.143C166.068 131.228 166.103 131.327 166.111 131.43C166.351 130.757 166.628 130.093 166.933 129.438C167.044 129.241 166.693 129.043 166.582 129.241Z" fill="#393B5B"/>
<path d="M147.214 139.802C147.113 140.58 147.232 141.37 147.558 142.087C147.883 142.805 148.403 143.423 149.062 143.876C151.307 145.222 160.816 134.526 160.816 134.526C160.816 134.526 165.186 134.185 166.064 139.372C166.942 144.558 152.841 157.229 145.467 158.117C138.093 159.005 132.789 151.315 132.789 151.315C132.789 151.315 133.778 136.446 138.278 135.45" fill="#393B5B"/>
<path d="M6.56384 123.399L10.7683 125.418L13.2263 123.139L16.7376 119.235L9.89967 117.979L6.56384 123.399Z" fill="#CC0000"/>
<path d="M62.1826 33.5031L38.9796 44.1636L35.6623 53.9356L1.51859 71.9812C1.00726 72.2443 0.590297 72.652 0.322966 73.1504C0.0556349 73.6487 -0.0494524 74.2142 0.0216229 74.7719L6.48998 123.408L69.7967 87.5142L66.0081 46.0211C65.9157 44.2982 65.0841 38.1693 64.5481 34.8132C64.5119 34.5602 64.4164 34.3186 64.2689 34.107C64.1213 33.8955 63.9258 33.7197 63.6972 33.5931C63.4687 33.4665 63.2133 33.3926 62.9507 33.377C62.6881 33.3614 62.4253 33.4045 62.1826 33.5031V33.5031Z" fill="url(#paint17_linear)"/>
<path d="M71.802 37.5681L46.6309 50.2027L43.2766 58.2788L12.3116 75.5257C11.8456 75.7849 11.4578 76.1583 11.187 76.6087C10.9161 77.0591 10.7718 77.5706 10.7684 78.0921V125.409L74.0752 89.5153V40.4037L73.9458 38.7885C73.9308 38.5505 73.8556 38.3198 73.7271 38.1167C73.5986 37.9135 73.4205 37.7442 73.2087 37.6237C72.9969 37.5031 72.7578 37.435 72.5125 37.4253C72.2672 37.4156 72.0232 37.4646 71.802 37.5681V37.5681Z" fill="url(#paint18_linear)"/>
<path d="M90.4031 184.257C91.6522 184.75 92.9825 185.02 94.3303 185.055C94.6698 185.054 95.0028 184.965 95.2958 184.798C95.5888 184.632 95.8313 184.393 95.9991 184.106C96.1668 183.82 96.2537 183.495 96.2512 183.166C96.2486 182.836 96.1566 182.513 95.9844 182.229V182.229C95.828 181.658 95.8394 181.056 96.0175 180.492C96.1955 179.927 96.533 179.422 96.9916 179.034C97.6107 178.594 99.2093 179.25 100.281 179.77C100.6 179.923 100.956 179.987 101.31 179.956C101.664 179.924 102.002 179.798 102.286 179.591L105.206 177.482C105.463 177.296 105.667 177.052 105.801 176.77C105.935 176.488 105.994 176.178 105.973 175.869C105.952 175.559 105.851 175.259 105.68 174.997C105.509 174.735 105.273 174.519 104.994 174.368C101.446 172.448 95.3376 169.307 94.2749 169.881C92.7595 170.779 88.1669 178.666 88.1484 180.694C88.2069 181.882 88.7487 182.999 89.6546 183.799C89.865 184.005 90.121 184.162 90.4031 184.257V184.257Z" fill="#373558"/>
<path d="M147.685 127.204C147.489 127.04 147.248 126.934 146.992 126.899C146.89 126.899 146.761 126.899 146.742 127.033C146.729 127.107 146.729 127.183 146.742 127.257C146.729 127.284 146.721 127.313 146.721 127.343C146.721 127.372 146.729 127.402 146.742 127.428C146.863 127.65 147.05 127.832 147.278 127.948C147.377 128.015 147.498 128.04 147.615 128.02C147.733 128 147.838 127.936 147.907 127.841C148.055 127.598 147.87 127.347 147.685 127.204Z" fill="#393B5B"/>
<path d="M144.174 128.675C144.004 128.453 143.764 128.292 143.49 128.218C143.43 128.205 143.368 128.21 143.31 128.232C143.253 128.254 143.204 128.292 143.169 128.34C143.133 128.389 143.113 128.447 143.111 128.506C143.109 128.566 143.125 128.624 143.157 128.675V128.675C143.143 128.81 143.161 128.947 143.209 129.074C143.257 129.202 143.334 129.317 143.434 129.411C143.535 129.482 143.657 129.52 143.781 129.52C143.905 129.52 144.027 129.482 144.128 129.411C144.232 129.318 144.296 129.19 144.304 129.052C144.313 128.915 144.266 128.78 144.174 128.675V128.675Z" fill="#393B5B"/>
<path d="M148.156 105.129C148.156 105.129 154.329 101.235 154.384 101.19C154.44 101.145 150.272 98.058 150.272 98.058L147.87 102.5" fill="#CC0000"/>
<path d="M124.196 58.1711L129.703 54.6804L131.071 61.7425L125.489 60.6477" fill="#CC0000"/>
<path d="M131.838 54.5099C131.543 54.3446 131.209 54.2567 130.869 54.2549C130.528 54.253 130.193 54.3373 129.897 54.4994C129.6 54.6615 129.352 54.8959 129.177 55.1794C129.002 55.4629 128.906 55.7858 128.899 56.1162L128.289 86.2579C128.289 86.7251 128.415 87.1842 128.653 87.5901C128.891 87.9961 129.234 88.3348 129.648 88.5731L151.483 101.217C151.904 101.464 152.386 101.597 152.878 101.604C153.37 101.61 153.855 101.489 154.283 101.254C154.711 101.018 155.066 100.676 155.313 100.262C155.56 99.849 155.689 99.3793 155.687 98.9015V69.4328C155.689 68.9485 155.555 68.4728 155.302 68.0559C155.048 67.639 154.683 67.2962 154.246 67.0638L131.838 54.5099Z" fill="url(#paint19_linear)"/>
<path d="M125.97 58.2608C125.675 58.0955 125.341 58.0076 125.001 58.0057C124.661 58.0039 124.326 58.0882 124.029 58.2503C123.732 58.4124 123.484 58.6468 123.309 58.9303C123.135 59.2138 123.039 59.5367 123.031 59.8671L122.422 90.0088C122.422 90.476 122.547 90.9351 122.785 91.341C123.023 91.7469 123.366 92.0857 123.78 92.324L145.615 105.012C146.036 105.259 146.518 105.393 147.01 105.399C147.502 105.406 147.987 105.285 148.415 105.049C148.843 104.814 149.199 104.471 149.446 104.058C149.692 103.645 149.822 103.175 149.82 102.697V73.1836C149.821 72.6994 149.688 72.2237 149.434 71.8068C149.18 71.3898 148.816 71.0471 148.378 70.8147L125.97 58.2608Z" fill="url(#paint20_linear)"/>
<path d="M135.74 83.638C138.329 83.4374 140.162 80.039 139.835 76.0473C139.507 72.0556 137.142 68.9823 134.552 69.1828C131.963 69.3834 130.13 72.7819 130.457 76.7735C130.785 80.7652 133.15 83.8385 135.74 83.638Z" fill="url(#paint21_linear)"/>
<path d="M134.952 77.437H134.027C133.303 77.437 132.715 78.0075 132.715 78.7113V90.4754C132.715 91.1792 133.303 91.7497 134.027 91.7497H134.952C135.676 91.7497 136.264 91.1792 136.264 90.4754V78.7113C136.264 78.0075 135.676 77.437 134.952 77.437Z" fill="url(#paint22_linear)"/>
<path d="M147.177 67.997C148.422 67.997 149.432 67.4064 149.432 66.6779C149.432 65.9494 148.422 65.3588 147.177 65.3588C145.932 65.3588 144.922 65.9494 144.922 66.6779C144.922 67.4064 145.932 67.997 147.177 67.997Z" fill="url(#paint23_linear)"/>
<path d="M140.348 43.356C129.786 40.8883 129.869 52.7601 129.869 52.7601V57.0045C129.791 57.6258 129.851 58.2561 130.045 58.8531C130.303 59.1057 130.614 59.3013 130.957 59.4268C131.299 59.5522 131.666 59.6044 132.032 59.5799C132.66 59.5799 133.566 59.4812 133.88 58.9248C134.052 58.407 134.106 57.8587 134.037 57.3186C133.972 56.3315 133.954 55.3355 133.991 54.3484C134.055 52.2127 134.249 49.6104 135.663 47.8606C136.127 47.3093 136.762 46.9187 137.473 46.7472C138.184 46.5757 138.934 46.6326 139.609 46.9094C145.033 48.6592 144.885 54.9855 144.885 54.9855V66.651H149.395V54.6804C149.395 54.6804 148.591 45.2852 140.348 43.356Z" fill="url(#paint24_linear)"/>
<path style="mix-blend-mode:multiply" opacity="0.62" d="M58.8652 151.674L24.047 173.668C24.047 173.668 16.6545 172.582 35.8379 181.286L73.8533 157.283" fill="url(#paint25_linear)"/>
<path d="M53.6166 147.914C53.6166 147.914 55.2891 157.713 65.5368 158.602C79.1758 159.786 79.8781 147.914 79.8781 147.914" fill="url(#paint26_linear)"/>
<path opacity="0.37" d="M61.933 148.085H53.6166C53.6166 148.085 55.132 156.942 64.1046 158.575C62.8326 157.162 61.9631 155.45 61.5822 153.61C61.2013 151.77 61.3222 149.865 61.933 148.085Z" fill="#393B5B"/>
<path d="M66.7474 151.701C73.9993 151.701 79.8781 150.006 79.8781 147.914C79.8781 145.823 73.9993 144.128 66.7474 144.128C59.4954 144.128 53.6166 145.823 53.6166 147.914C53.6166 150.006 59.4954 151.701 66.7474 151.701Z" fill="#393B5B"/>
<path d="M79.2776 139.605C76.8381 138.905 74.0474 139.838 72.0238 141.157C71.3658 141.599 70.7475 142.095 70.1757 142.638C69.9144 142.75 69.6612 142.879 69.418 143.024C70.4899 139.955 71.1459 136.805 69.5843 133.709C68.7711 132.094 66.3224 129.6 64.4003 131.287C64.0451 131.668 63.7747 132.117 63.6062 132.605C63.4376 133.093 63.3746 133.609 63.4209 134.122C63.438 135.435 63.6243 136.74 63.9753 138.008C64.3449 139.443 64.8254 140.852 65.1858 142.288C65.2536 142.551 65.3152 142.814 65.3706 143.078C64.1882 141.902 62.9289 140.802 61.6005 139.784C61.3233 139.578 61.0368 139.39 60.7319 139.21C59.4127 137.921 57.69 137.094 55.8344 136.859C54.6735 136.647 53.4732 136.875 52.4801 137.496C52.037 137.856 51.713 138.335 51.5487 138.873C51.3843 139.411 51.3869 139.984 51.556 140.52C52.1382 143.069 54.4945 145.007 56.6938 146.272C59.1318 147.687 61.8951 148.489 64.733 148.605C64.8682 148.736 65.0506 148.81 65.2412 148.812C68.2078 148.898 71.1736 148.614 74.0659 147.968C76.4962 147.421 79.4809 146.694 81.1534 144.738C82.8259 142.781 81.6709 140.296 79.2776 139.605Z" fill="url(#paint27_linear)"/>
<path d="M77.3001 142.18C74.7497 144.702 71.2938 145.895 68.1243 147.51C68.2244 142.566 67.8189 137.625 66.9138 132.758C66.8121 132.193 65.9251 132.435 65.9897 132.991C66.8791 137.799 67.2722 142.681 67.1633 147.564C62.9558 144.771 58.8006 141.905 54.6978 138.968C54.2173 138.627 53.7738 139.399 54.2358 139.74C58.3201 142.665 62.4568 145.518 66.6458 148.3L66.0729 148.65C65.5739 148.964 66.0729 149.736 66.5349 149.422L67.1263 149.063C67.1263 149.153 67.1263 149.251 67.1263 149.341C67.1263 149.915 68.0504 149.915 68.0504 149.341V149.224L68.3738 149.44C68.8635 149.763 69.2978 148.991 68.8358 148.668L68.3923 148.372C71.6727 146.658 75.2765 145.438 77.9285 142.808C78.372 142.405 77.716 141.803 77.3001 142.18Z" fill="#393B5B"/>
</g>
<defs>
<linearGradient id="paint0_linear" x1="121.948" y1="102.062" x2="121.948" y2="240" gradientUnits="userSpaceOnUse">
<stop offset="0.015625"/>
<stop offset="1" stop-color="#FF0000" stop-opacity="0.7"/>
</linearGradient>
<linearGradient id="paint1_linear" x1="147.519" y1="0" x2="147.519" y2="186.33" gradientUnits="userSpaceOnUse">
<stop offset="0.015625"/>
<stop offset="1" stop-color="#FF0000" stop-opacity="0.7"/>
</linearGradient>
<linearGradient id="paint2_linear" x1="80.0075" y1="213.375" x2="250.322" y2="87.2103" gradientUnits="userSpaceOnUse">
<stop stop-opacity="0"/>
<stop offset="1"/>
</linearGradient>
<linearGradient id="paint3_linear" x1="143.646" y1="2.02042" x2="143.646" y2="186.642" gradientUnits="userSpaceOnUse">
<stop offset="0.015625"/>
<stop offset="1" stop-color="#FF0000" stop-opacity="0.7"/>
</linearGradient>
<linearGradient id="paint4_linear" x1="143.291" y1="12.9001" x2="143.291" y2="179.124" gradientUnits="userSpaceOnUse">
<stop offset="0.015625"/>
<stop offset="1" stop-color="#FF0000" stop-opacity="0.7"/>
</linearGradient>
<linearGradient id="paint5_linear" x1="165.635" y1="106.601" x2="165.635" y2="141.92" gradientUnits="userSpaceOnUse">
<stop offset="0.015625"/>
<stop offset="1" stop-color="#FF0000" stop-opacity="0.7"/>
</linearGradient>
<linearGradient id="paint6_linear" x1="161.846" y1="112.972" x2="161.846" y2="120.222" gradientUnits="userSpaceOnUse">
<stop offset="0.015625"/>
<stop offset="1" stop-color="#FF0000" stop-opacity="0.7"/>
</linearGradient>
<linearGradient id="paint7_linear" x1="165.519" y1="114.937" x2="165.519" y2="122.187" gradientUnits="userSpaceOnUse">
<stop offset="0.015625"/>
<stop offset="1" stop-color="#FF0000" stop-opacity="0.7"/>
</linearGradient>
<linearGradient id="paint8_linear" x1="169.192" y1="117.028" x2="169.192" y2="124.278" gradientUnits="userSpaceOnUse">
<stop offset="0.015625"/>
<stop offset="1" stop-color="#FF0000" stop-opacity="0.7"/>
</linearGradient>
<linearGradient id="paint9_linear" x1="161.846" y1="120.222" x2="161.846" y2="127.482" gradientUnits="userSpaceOnUse">
<stop offset="0.015625"/>
<stop offset="1" stop-color="#FF0000" stop-opacity="0.7"/>
</linearGradient>
<linearGradient id="paint10_linear" x1="165.519" y1="122.188" x2="165.519" y2="129.447" gradientUnits="userSpaceOnUse">
<stop offset="0.015625"/>
<stop offset="1" stop-color="#FF0000" stop-opacity="0.7"/>
</linearGradient>
<linearGradient id="paint11_linear" x1="169.192" y1="124.278" x2="169.192" y2="131.538" gradientUnits="userSpaceOnUse">
<stop offset="0.015625"/>
<stop offset="1" stop-color="#FF0000" stop-opacity="0.7"/>
</linearGradient>
<linearGradient id="paint12_linear" x1="161.846" y1="127.455" x2="161.846" y2="134.705" gradientUnits="userSpaceOnUse">
<stop offset="0.015625"/>
<stop offset="1" stop-color="#FF0000" stop-opacity="0.7"/>
</linearGradient>
<linearGradient id="paint13_linear" x1="165.519" y1="129.42" x2="165.519" y2="136.671" gradientUnits="userSpaceOnUse">
<stop offset="0.015625"/>
<stop offset="1" stop-color="#FF0000" stop-opacity="0.7"/>
</linearGradient>
<linearGradient id="paint14_linear" x1="169.192" y1="131.511" x2="169.192" y2="138.77" gradientUnits="userSpaceOnUse">
<stop offset="0.015625"/>
<stop offset="1" stop-color="#FF0000" stop-opacity="0.7"/>
</linearGradient>
<linearGradient id="paint15_linear" x1="133.009" y1="130.972" x2="148.148" y2="138.05" gradientUnits="userSpaceOnUse">
<stop stop-color="#ECC4D7"/>
<stop offset="0.42" stop-color="#EFD4D1"/>
<stop offset="1" stop-color="#F2EAC9"/>
</linearGradient>
<linearGradient id="paint16_linear" x1="159.106" y1="131.038" x2="168.676" y2="133.532" gradientUnits="userSpaceOnUse">
<stop stop-color="#ECC4D7"/>
<stop offset="0.42" stop-color="#EFD4D1"/>
<stop offset="1" stop-color="#F2EAC9"/>
</linearGradient>
<linearGradient id="paint17_linear" x1="34.8984" y1="33.3739" x2="34.8984" y2="123.408" gradientUnits="userSpaceOnUse">
<stop offset="0.015625"/>
<stop offset="1" stop-color="#FF0000" stop-opacity="0.7"/>
</linearGradient>
<linearGradient id="paint18_linear" x1="42.4218" y1="37.4241" x2="42.4218" y2="125.409" gradientUnits="userSpaceOnUse">
<stop offset="0.015625"/>
<stop offset="1" stop-color="#FF0000" stop-opacity="0.7"/>
</linearGradient>
<linearGradient id="paint19_linear" x1="141.988" y1="54.2548" x2="141.988" y2="101.604" gradientUnits="userSpaceOnUse">
<stop offset="0.015625"/>
<stop offset="1" stop-color="#FF0000" stop-opacity="0.7"/>
</linearGradient>
<linearGradient id="paint20_linear" x1="136.121" y1="58.0057" x2="136.121" y2="105.4" gradientUnits="userSpaceOnUse">
<stop offset="0.015625"/>
<stop offset="1" stop-color="#FF0000" stop-opacity="0.7"/>
</linearGradient>
<linearGradient id="paint21_linear" x1="134.552" y1="69.1828" x2="135.672" y2="83.6432" gradientUnits="userSpaceOnUse">
<stop offset="0.015625"/>
<stop offset="1" stop-color="#FF0000" stop-opacity="0.7"/>
</linearGradient>
<linearGradient id="paint22_linear" x1="134.49" y1="77.437" x2="134.49" y2="91.7497" gradientUnits="userSpaceOnUse">
<stop offset="0.015625"/>
<stop offset="1" stop-color="#FF0000" stop-opacity="0.7"/>
</linearGradient>
<linearGradient id="paint23_linear" x1="147.177" y1="65.3588" x2="147.177" y2="67.997" gradientUnits="userSpaceOnUse">
<stop offset="0.015625"/>
<stop offset="1" stop-color="#FF0000" stop-opacity="0.7"/>
</linearGradient>
<linearGradient id="paint24_linear" x1="139.615" y1="43.0184" x2="139.615" y2="66.651" gradientUnits="userSpaceOnUse">
<stop offset="0.015625"/>
<stop offset="1" stop-color="#FF0000" stop-opacity="0.7"/>
</linearGradient>
<linearGradient id="paint25_linear" x1="5175.08" y1="6220.12" x2="9320.36" y2="1024.7" gradientUnits="userSpaceOnUse">
<stop stop-opacity="0"/>
<stop offset="1"/>
</linearGradient>
<linearGradient id="paint26_linear" x1="66.7473" y1="147.914" x2="66.7473" y2="158.685" gradientUnits="userSpaceOnUse">
<stop offset="0.015625"/>
<stop offset="1" stop-color="#FF0000" stop-opacity="0.7"/>
</linearGradient>
<linearGradient id="paint27_linear" x1="66.685" y1="130.724" x2="66.685" y2="148.827" gradientUnits="userSpaceOnUse">
<stop offset="0.015625"/>
<stop offset="1" stop-color="#FF0000" stop-opacity="0.7"/>
</linearGradient>
</defs>
</svg>
